<svg xmlns="http://www.w3.org/2000/svg" xmlns:xlink="http://www.w3.org/1999/xlink" width="500" zoomAndPan="magnify" viewBox="0 0 375.12 383.03998" height="500" preserveAspectRatio="xMidYMid meet" version="1.0"><defs><clipPath id="24be24c2bb"><path d="M 32.132812 15 L 334.375 15 L 334.375 358.996094 L 32.132812 358.996094 Z M 32.132812 15 " clip-rule="nonzero"/></clipPath><clipPath id="3a7749500a"><path d="M 32.132812 14.855469 L 334.375 14.855469 L 334.375 358.996094 L 32.132812 358.996094 Z M 32.132812 14.855469 " clip-rule="nonzero"/></clipPath></defs><g clip-path="url(#24be24c2bb)"><path fill="#010101" d="M 180.792969 26.726562 C 198.167969 15.0625 220.945312 11.890625 240.886719 18.199219 C 250.53125 21.070312 259.363281 26.390625 266.609375 33.34375 C 273.792969 40.464844 279.253906 49.265625 282.464844 58.855469 C 286.539062 70.460938 287.65625 82.882812 287.449219 95.113281 C 293.078125 93.152344 298.625 90.960938 304.285156 89.078125 C 306.199219 88.402344 308.136719 87.546875 310.222656 87.632812 C 313.730469 87.632812 317.027344 89.941406 318.425781 93.128906 C 322.890625 103.765625 327.324219 114.414062 331.574219 125.144531 C 332.726562 128.261719 334.785156 131.417969 333.992188 134.882812 C 333.441406 137.8125 331.421875 140.410156 328.675781 141.605469 C 316.960938 146.175781 305.070312 150.269531 293.308594 154.703125 C 294.226562 158.351562 295.28125 161.972656 296.300781 165.597656 C 296.8125 166.972656 296.875 168.765625 298.335938 169.539062 C 305.566406 174.460938 311.742188 181.042969 315.679688 188.890625 C 324.929688 207.234375 323.28125 230.449219 311.890625 247.488281 C 308.519531 252.367188 304.53125 256.890625 299.714844 260.386719 C 298.660156 261.265625 297.347656 261.945312 296.679688 263.195312 C 289.308594 279.027344 276.976562 292.265625 262.554688 301.957031 C 262.8125 307.609375 262.0625 313.617188 258.613281 318.292969 C 260.054688 320.488281 261.445312 322.71875 262.867188 324.941406 C 266.800781 322.550781 270.949219 320.050781 275.65625 319.710938 C 277.992188 319.660156 280.441406 320.226562 282.3125 321.683594 C 284.425781 323.417969 285.519531 326.546875 284.421875 329.144531 C 283.46875 331.871094 280.875 333.46875 278.515625 334.859375 C 274.78125 336.882812 270.847656 338.515625 267.046875 340.402344 C 263.175781 342.355469 260.347656 345.75 256.925781 348.332031 C 254.738281 350.027344 251.679688 350.464844 249.085938 349.550781 C 246.367188 348.488281 245.140625 345.304688 245.570312 342.566406 C 246.042969 339.589844 247.78125 337.027344 249.703125 334.785156 C 247.828125 331.984375 246.015625 329.136719 244.082031 326.382812 C 236.617188 326.894531 229.5625 323.246094 224.167969 318.335938 C 209.3125 321.730469 193.945312 322.804688 178.765625 321.546875 C 177.125 322.996094 175.804688 324.808594 174.007812 326.09375 C 170.222656 329.035156 165.53125 330.523438 160.816406 331.074219 C 160.171875 333.417969 159.28125 335.683594 158.40625 337.957031 C 163.378906 338.871094 168.808594 339.558594 172.847656 342.871094 C 175.726562 345.117188 176.242188 349.703125 173.804688 352.460938 C 172.652344 354.222656 170.300781 354.503906 169.089844 356.175781 C 167.285156 358.457031 164.074219 359.261719 161.320312 358.585938 C 155.8125 357.304688 151.332031 353.621094 146.199219 351.453125 C 141.25 349.992188 135.574219 352.03125 130.964844 349.097656 C 127.625 347.027344 127.75 341.921875 130.449219 339.378906 C 133.460938 336.496094 137.871094 336.0625 141.832031 335.785156 C 143.121094 332.402344 144.039062 328.894531 145.195312 325.472656 C 141.859375 322.089844 139.648438 317.703125 138.617188 313.089844 C 138.546875 312.46875 137.890625 312.324219 137.425781 312.117188 C 132.714844 310.359375 128.125 308.265625 123.714844 305.851562 C 104.011719 295.863281 87.296875 280.382812 74.941406 262.15625 C 63.417969 255.058594 51.917969 247.527344 42.542969 237.644531 C 38.894531 233.511719 35.152344 229.269531 33.0625 224.097656 C 31.835938 221.074219 31.902344 217.078125 34.503906 214.78125 C 37.152344 212.5 40.984375 212.425781 44.234375 213.191406 C 40.847656 207.039062 37.316406 200.5 37.242188 193.296875 C 37.085938 189.441406 38.941406 185.304688 42.453125 183.464844 C 45.542969 181.882812 49.222656 182.507812 52.308594 183.753906 C 58 186.113281 62.605469 190.417969 66.628906 194.972656 C 67.351562 193.007812 68.449219 190.917969 70.570312 190.207031 C 73.773438 188.867188 77.289062 190.375 79.847656 192.378906 C 84.019531 195.65625 87.058594 200.105469 90.046875 204.433594 C 97.65625 192.054688 107.9375 181.195312 120.320312 173.515625 C 123.039062 171.699219 126.285156 170.773438 128.914062 168.84375 C 132.875 163.738281 136.039062 158.035156 138.648438 152.128906 C 144.066406 140.039062 145.769531 126.675781 146.328125 113.554688 C 146.933594 102.0625 146.386719 90.445312 148.632812 79.097656 C 150.488281 69.78125 153.1875 60.511719 157.882812 52.203125 C 163.289062 42.027344 171.191406 33.128906 180.792969 26.726562 M 186.570312 29.296875 C 177.941406 34.425781 170.664062 41.679688 165.21875 50.089844 C 157.003906 63.238281 153.035156 78.738281 152.308594 94.113281 C 151.984375 97.210938 152.042969 100.324219 151.945312 103.433594 C 151.867188 108.902344 151.449219 114.363281 151.398438 119.824219 L 151.257812 119.71875 C 150.523438 130.492188 148.730469 141.335938 144.699219 151.402344 C 142.578125 156.414062 140.296875 161.371094 137.472656 166.039062 C 143.269531 164.570312 149.207031 163.503906 155.21875 163.886719 C 159.640625 164.421875 164.082031 165.117188 168.3125 166.597656 C 177.933594 169.921875 186.378906 176.546875 191.792969 185.171875 C 200.578125 198.714844 202.152344 216.183594 197.308594 231.425781 C 195.917969 234.285156 194.894531 237.320312 193.238281 240.054688 C 188.570312 248.332031 181.679688 255.3125 173.585938 260.285156 C 165.195312 265.585938 155.640625 268.875 145.878906 270.484375 C 134.234375 272.257812 122.300781 271.308594 110.863281 268.65625 C 99.984375 265.921875 89.480469 261.359375 80.464844 254.632812 C 74.605469 250.226562 69.03125 245.066406 65.691406 238.4375 C 64.4375 235.988281 63.800781 232.988281 64.976562 230.386719 C 66.390625 226.988281 69.71875 225.027344 72.734375 223.210938 C 77.667969 220.378906 82.265625 216.757812 85.414062 211.949219 L 85.378906 211.894531 C 85.910156 211.070312 86.414062 210.238281 86.886719 209.382812 C 84.191406 205.066406 81.339844 200.761719 77.550781 197.320312 C 76.480469 196.386719 75.304688 195.542969 73.972656 195.035156 C 73.179688 194.675781 71.945312 194.976562 71.808594 195.949219 C 71.445312 198.640625 72.160156 201.296875 72.679688 203.914062 C 72.984375 205.914062 70.386719 207.3125 68.835938 206.128906 C 66.964844 204.378906 65.835938 202.007812 64.136719 200.105469 C 60.707031 196.265625 57.265625 192.242188 52.667969 189.757812 C 50.273438 188.394531 47.285156 187.054688 44.570312 188.25 C 42.148438 189.957031 42.382812 193.363281 42.710938 195.964844 C 43.738281 201.828125 46.617188 207.179688 49.902344 212.074219 C 52.023438 215.859375 55.3125 218.832031 58.074219 222.136719 C 59.132812 223.378906 58.683594 225.558594 57.074219 226.085938 C 55.5 226.851562 54.148438 225.425781 53.117188 224.433594 C 49.847656 220.988281 45.546875 218 40.644531 217.894531 C 39.398438 217.835938 37.476562 218.21875 37.511719 219.8125 C 37.710938 222.40625 39.25 224.652344 40.570312 226.820312 C 45.207031 233.570312 51.285156 239.207031 57.765625 244.160156 C 64.160156 249.464844 71.378906 253.628906 78.363281 258.066406 C 82.972656 264.726562 88.082031 271.035156 93.613281 276.960938 C 106.050781 289.90625 121.277344 300.203125 137.996094 306.78125 C 138.097656 305.027344 137.601562 302.472656 139.605469 301.597656 C 141.355469 300.816406 143.382812 302.417969 143.097656 304.292969 C 142.808594 310.59375 144.355469 317.484375 149.128906 321.921875 C 153.355469 325.953125 159.90625 326.820312 165.304688 324.910156 C 169.75 323.421875 173.3125 320.078125 176.023438 316.347656 C 177.484375 314.328125 178.273438 311.914062 179.703125 309.878906 C 181.003906 308.265625 184.066406 309.054688 184.179688 311.203125 C 184.148438 313.167969 182.871094 314.796875 182.132812 316.550781 C 199.332031 317.816406 216.734375 315.597656 233.160156 310.386719 C 249.660156 305.117188 264.875 295.773438 276.738281 283.125 C 282.371094 277.09375 287.394531 270.335938 290.796875 262.796875 C 295.121094 255.308594 297.328125 246.777344 299.199219 238.390625 C 301.324219 226.496094 301.894531 214.167969 299.867188 202.222656 C 298.847656 194.453125 297.09375 186.765625 294.816406 179.265625 C 293.691406 174.664062 292.136719 170.164062 290.777344 165.617188 C 289.957031 162.601562 289.0625 159.609375 288.296875 156.578125 C 279.683594 159.46875 271.214844 162.773438 262.652344 165.816406 C 259.496094 166.894531 255.703125 166.433594 253.210938 164.113281 C 250.636719 161.855469 249.898438 158.363281 248.558594 155.355469 C 244.242188 144.679688 239.632812 134.121094 235.460938 123.386719 C 234.871094 121.097656 234.914062 118.5625 236.027344 116.429688 C 237.160156 114.214844 239.285156 112.628906 241.636719 111.890625 C 244.441406 110.972656 247.199219 109.902344 249.957031 108.851562 C 247.910156 105.933594 245.957031 102.84375 245.25 99.300781 C 245.097656 98.203125 244.433594 97.34375 243.535156 96.75 C 240.683594 94.835938 239.339844 91.375 239.074219 88.070312 C 238.5 81.597656 242.492188 75.335938 248.023438 72.203125 C 252.5625 69.757812 258.214844 69.875 262.855469 72.011719 C 264.882812 70.566406 267.210938 69.34375 269.785156 69.492188 C 273.46875 69.335938 276.738281 71.523438 279.078125 74.1875 C 281.269531 77.550781 281.871094 81.828125 280.691406 85.660156 C 281.0625 85.976562 281.441406 86.289062 281.828125 86.601562 C 281.589844 71.894531 277.871094 56.96875 269.433594 44.757812 C 264.234375 37.441406 257.246094 31.375 249.210938 27.347656 C 229.859375 17.152344 205.316406 18.207031 186.570312 29.296875 M 266.917969 74.898438 L 266.882812 74.851562 C 265.824219 75.898438 264.765625 76.976562 263.457031 77.710938 C 261.347656 76.742188 259.410156 75.203125 257.003906 75.078125 C 249.941406 74.222656 243.167969 80.921875 243.925781 87.984375 C 244.035156 90.136719 245.128906 92.773438 247.511719 93.152344 C 249.824219 93.304688 252.089844 92.128906 253.648438 90.464844 C 256.523438 87.515625 259.023438 84.03125 262.738281 82.054688 C 265.140625 80.648438 267.996094 80.511719 270.710938 80.496094 C 272.714844 80.914062 274.644531 81.589844 276.511719 82.4375 C 276.472656 80.511719 276.253906 78.492188 275.101562 76.875 C 273.421875 74.238281 269.625 73.320312 266.917969 74.898438 M 264.566406 86.59375 C 260.257812 88.902344 258.320312 93.984375 253.902344 96.152344 C 262.558594 101.023438 271.867188 104.625 281.222656 107.9375 L 281.207031 108.265625 C 282.039062 107.894531 281.847656 106.882812 281.988281 106.15625 C 282.492188 100.910156 281.375 95.453125 278.492188 91.003906 C 276.453125 87.824219 272.964844 85.40625 269.082031 85.40625 C 267.523438 85.550781 265.929688 85.773438 264.566406 86.59375 M 287.027344 100.375 C 287.289062 103.871094 287.234375 107.457031 286.242188 110.84375 C 285.703125 112.769531 283.523438 114.261719 281.554688 113.492188 C 276.382812 111.796875 271.359375 109.679688 266.242188 107.824219 C 262.128906 109.441406 257.964844 110.945312 253.84375 112.554688 C 250.015625 114.0625 245.996094 115.117188 242.285156 116.902344 C 241.609375 117.445312 240.820312 117.871094 240.300781 118.566406 C 239.75 119.492188 240.515625 120.398438 241.183594 120.988281 C 240.832031 120.867188 240.132812 120.621094 239.78125 120.496094 C 240.761719 124.152344 242.390625 127.585938 243.730469 131.121094 C 247.75 140.761719 251.5625 150.503906 255.835938 160.039062 L 255.753906 160.222656 C 257.050781 160.921875 258.441406 161.414062 259.933594 161.519531 L 259.867188 161.664062 C 272.640625 157.195312 285.324219 152.476562 298.035156 147.820312 C 307.917969 144.15625 317.929688 140.804688 327.675781 136.789062 C 328.875 135.828125 329.128906 134.320312 329.335938 132.894531 C 328.921875 130.816406 327.96875 128.914062 327.191406 126.964844 C 322.597656 116.007812 318.441406 104.871094 313.449219 94.089844 L 313.5 93.972656 C 312.300781 93.230469 311.101562 92.273438 309.609375 92.316406 C 302 94.765625 294.609375 97.847656 287.027344 100.375 M 250.945312 100.648438 C 251.675781 101.953125 252.417969 103.253906 253.199219 104.53125 C 253.625 105.40625 254.257812 106.15625 254.839844 106.933594 C 256.492188 106.316406 258.152344 105.710938 259.808594 105.109375 C 258.394531 104.332031 257.003906 103.476562 255.488281 102.917969 C 253.992188 102.117188 252.492188 101.324219 250.945312 100.648438 M 124.496094 177.203125 C 115.382812 182.375 107.601562 189.65625 101.109375 197.832031 C 98.285156 201.382812 95.65625 205.410156 95.070312 209.992188 L 94.964844 209.710938 C 94.425781 212.140625 95.363281 214.867188 97.628906 216.074219 C 101.5625 218.054688 106.082031 217.140625 110.292969 217.019531 C 112.386719 216.746094 113.296875 219.554688 111.863281 220.882812 C 108.28125 224.847656 103.917969 229.03125 103.5625 234.695312 C 103.207031 238.417969 106.46875 241.265625 109.789062 242.148438 C 115.78125 243.804688 122.054688 242.421875 127.914062 240.859375 C 129.59375 240.378906 131.554688 241.988281 130.890625 243.769531 C 130.125 245.523438 128.792969 246.960938 128.058594 248.738281 C 126.957031 251.054688 127.003906 254.136719 128.898438 256.039062 C 131.152344 258.289062 134.402344 259.097656 137.429688 259.695312 C 147.777344 261.402344 158.179688 259.011719 168.148438 256.355469 C 172.828125 255.488281 176.308594 251.9375 179.695312 248.867188 C 185.714844 243.328125 190.058594 236.121094 192.621094 228.382812 C 197.265625 213.15625 194.402344 195.425781 183.875 183.242188 C 176.992188 175.28125 166.851562 170.28125 156.40625 169.375 C 153.707031 169.015625 150.957031 169.042969 148.261719 169.382812 C 139.886719 170.089844 131.78125 173.066406 124.496094 177.203125 M 300.007812 177.28125 C 300.585938 180.207031 301.449219 183.074219 302.1875 185.964844 C 304.824219 196.871094 306.449219 208.070312 306.257812 219.308594 C 306.25 230.453125 304.351562 241.5625 301.058594 252.199219 C 307.273438 246.046875 311.945312 238.277344 314.316406 229.847656 C 316.828125 220.703125 317.160156 210.945312 314.851562 201.710938 C 312.699219 192.234375 307.3125 183.640625 300.007812 177.28125 M 78.496094 225.832031 C 75.855469 227.519531 72.984375 228.914062 70.691406 231.09375 C 69.4375 232.289062 69.40625 234.144531 70.101562 235.652344 C 71.660156 239.453125 74.460938 242.632812 77.523438 245.308594 C 85.367188 252.996094 95.246094 258.316406 105.613281 261.753906 C 117.582031 265.589844 130.328125 267.21875 142.84375 265.6875 C 140.015625 265.089844 137.085938 265.140625 134.292969 264.351562 C 129.828125 263.171875 125.121094 260.902344 123.007812 256.550781 C 121.542969 253.679688 122.03125 250.347656 122.789062 247.351562 C 121.15625 247.617188 119.511719 247.851562 117.878906 248.105469 C 113.128906 248.464844 108.109375 247.828125 104.011719 245.234375 C 100.492188 243.03125 98.226562 238.921875 98.402344 234.75 C 98.535156 230.3125 100.667969 226.207031 103.304688 222.738281 C 99.175781 222.414062 94.835938 221.386719 91.953125 218.183594 C 91.152344 216.890625 90.53125 215.503906 90.097656 214.046875 C 87.300781 218.863281 83.195312 222.871094 78.496094 225.832031 M 230.507812 316.585938 C 235.929688 321.023438 244.285156 323.035156 250.476562 319.003906 C 255.140625 316.183594 257.203125 310.570312 257.214844 305.332031 C 248.765625 310.042969 239.847656 314.019531 230.507812 316.585938 M 249.792969 325.277344 C 251.53125 327.855469 253.226562 330.46875 254.894531 333.09375 C 255.738281 334.40625 255.476562 336.21875 254.386719 337.316406 C 252.769531 339.558594 250.117188 341.957031 251.050781 345.011719 C 252.265625 344.929688 253.40625 344.433594 254.316406 343.625 C 257.304688 341.09375 260.175781 338.363281 263.585938 336.394531 C 268.316406 333.796875 273.449219 331.953125 277.988281 329.007812 C 278.832031 328.34375 280.066406 327.390625 279.492188 326.175781 C 278.089844 324.433594 275.617188 324.863281 273.738281 325.40625 C 270.070312 326.585938 266.824219 328.726562 263.382812 330.40625 C 262.320312 330.953125 260.910156 330.984375 260.171875 329.910156 C 258.167969 327.515625 256.65625 324.746094 254.914062 322.164062 C 253.347656 323.421875 251.605469 324.425781 249.792969 325.277344 M 149.625 328.621094 C 148.707031 331.5 147.84375 334.402344 146.910156 337.277344 C 146.445312 338.574219 145.914062 340.195312 144.386719 340.550781 C 142.445312 341.082031 140.414062 341.148438 138.4375 341.460938 C 136.449219 341.59375 134.183594 342.320312 133.328125 344.304688 C 134.285156 344.984375 135.359375 345.527344 136.558594 345.527344 C 139.632812 345.660156 142.707031 345.671875 145.777344 345.78125 C 151.261719 347.675781 155.945312 351.265625 161.40625 353.210938 C 162.394531 353.53125 163.5 353.699219 164.507812 353.324219 C 165.230469 352.679688 165.339844 351.628906 165.839844 350.824219 C 167.027344 349.886719 169.042969 350.367188 169.917969 348.960938 C 170.597656 347.769531 169.449219 346.636719 168.535156 346.027344 C 167.015625 345.140625 165.261719 344.457031 163.480469 344.511719 L 163.972656 344.425781 C 160.730469 343.449219 157.332031 343.195312 154.0625 342.371094 C 152.5625 342.03125 152.03125 340.226562 152.539062 338.914062 C 153.417969 336.066406 154.734375 333.367188 155.519531 330.484375 C 155.105469 330.453125 154.265625 330.382812 153.851562 330.351562 C 152.457031 329.726562 151.015625 329.230469 149.625 328.621094 Z M 149.625 328.621094 " fill-opacity="1" fill-rule="nonzero"/></g><g clip-path="url(#3a7749500a)"><path stroke-linecap="round" transform="matrix(0.531709, 0, 0, 0.531486, -89.086998, -85.221745)" fill="none" stroke-linejoin="round" d="M 507.571241 210.632504 C 540.248917 188.686386 583.086942 182.718454 620.591335 194.588172 C 638.73009 199.99018 655.340753 210.000432 668.968695 223.082846 C 682.479093 236.481296 692.74964 253.040105 698.788545 271.083547 C 706.451049 292.919419 708.552176 316.291372 708.162806 339.303192 C 718.749257 335.613657 729.181429 331.490492 739.826652 327.94795 C 743.426486 326.676457 747.0704 325.066879 750.993484 325.228572 C 757.590731 325.228572 763.791261 329.572228 766.421344 335.569559 C 774.818508 355.582713 783.156899 375.617916 791.15 395.807462 C 793.317247 401.672499 797.188905 407.611033 795.697545 414.130191 C 794.661675 419.642444 790.863482 424.529975 785.698823 426.778975 C 763.666369 435.37809 741.303319 443.080545 719.182706 451.422421 C 720.909157 458.287014 722.892739 465.100159 724.810202 471.920653 C 725.772607 474.507737 725.890152 477.881236 728.637781 479.336471 C 742.236337 488.597057 753.851312 500.981252 761.256684 515.746741 C 778.653433 550.260795 775.553168 593.939889 754.130482 625.999154 C 747.790367 635.178893 740.289488 643.689811 731.23113 650.267767 C 729.247548 651.921443 726.779091 653.200286 725.522822 655.55218 C 711.659788 685.340396 688.466572 710.248431 661.342925 728.482964 C 661.8278 739.117938 660.417253 750.421732 653.930205 759.219288 C 656.641101 763.349803 659.25649 767.546465 661.930653 771.728428 C 669.328679 767.230429 677.130768 762.52664 685.983421 761.887219 C 690.376688 761.791673 694.983006 762.857375 698.502027 765.598802 C 702.476538 768.862056 704.533586 774.749143 702.469191 779.636674 C 700.676621 784.766744 695.798479 787.772759 691.361132 790.389242 C 684.337783 794.196372 676.939756 797.268534 669.791515 800.818425 C 662.511034 804.493261 657.192096 810.880125 650.756474 815.738257 C 646.642378 818.928014 640.88999 819.751177 636.011848 818.031354 C 630.898614 816.032244 628.591782 810.042262 629.399908 804.890143 C 630.288847 799.289694 633.558084 794.46831 637.172611 790.249599 C 633.646243 784.979884 630.23742 779.621974 626.600853 774.440456 C 612.561501 775.403263 599.293541 768.538671 589.147887 759.300134 C 561.208767 765.686998 532.307243 767.708158 503.758355 765.341564 C 500.672783 768.068292 498.189632 771.478539 494.810196 773.896581 C 487.691341 779.430883 478.868074 782.231108 470.000728 783.267411 C 468.788539 787.677214 467.113515 791.940023 465.467876 796.217531 C 474.820098 797.937354 485.031872 799.230896 492.628256 805.463417 C 498.0427 809.689478 499.012452 818.317992 494.428173 823.506859 C 492.260926 826.821561 487.838273 827.350737 485.560827 830.496396 C 482.166698 834.788604 476.127793 836.302636 470.94844 835.031143 C 460.589734 832.620451 452.163184 825.689712 442.509751 821.610644 C 433.201609 818.861867 422.526999 822.698395 413.858011 817.178793 C 407.576668 813.283467 407.811759 803.677447 412.88826 798.892811 C 418.552489 793.468754 426.8468 792.652941 434.296252 792.131114 C 436.72063 785.766299 438.447081 779.166295 440.621675 772.727983 C 434.347679 766.363168 430.189503 758.109488 428.250001 749.429526 C 428.117762 748.260929 426.883533 747.988991 426.009288 747.599458 C 417.149288 744.292106 408.517033 740.352683 400.222722 735.810586 C 363.166471 717.017478 331.73037 687.890732 308.493074 653.597168 C 286.820604 640.242816 265.192214 626.07265 247.560374 607.477983 C 240.69865 599.702031 233.660607 591.720289 229.730176 581.989324 C 227.423344 576.300679 227.548236 568.781966 232.441071 564.460359 C 237.422066 560.168152 244.629081 560.028508 250.741452 561.469043 C 244.37195 549.893312 237.730623 537.589963 237.591038 524.037169 C 237.297174 516.783044 240.786809 508.999743 247.391402 505.538048 C 253.202563 502.561431 260.12306 503.737379 265.926874 506.081924 C 276.63087 510.521125 285.292512 518.620462 292.85951 527.190178 C 294.218631 523.493294 296.283025 519.56122 300.272229 518.22358 C 306.296441 515.702643 312.908381 518.539616 317.720404 522.309997 C 325.566573 528.476371 331.282228 536.847646 336.902377 544.991081 C 351.213553 521.699974 370.549804 501.267889 393.838526 486.818436 C 398.95176 483.400839 405.056785 481.658967 410.001046 478.02823 C 417.450499 468.42221 423.401245 457.69169 428.308773 446.578988 C 438.498508 423.831757 441.701625 398.688533 442.752189 374.000988 C 443.890912 352.378256 442.862388 330.520335 447.086683 309.169541 C 450.576318 291.640576 455.652819 274.199807 464.483432 258.567057 C 474.651126 239.421165 489.513298 222.678614 507.571241 210.632504 M 518.436862 215.468587 C 502.208223 225.118705 488.521507 238.767044 478.280346 254.590885 C 462.830447 279.329877 455.366301 308.493372 453.999834 337.421676 C 453.390066 343.249965 453.500265 349.107653 453.3166 354.957991 C 453.169668 365.24753 452.383582 375.52237 452.288076 385.79721 L 452.023598 385.598769 C 450.642437 405.869161 447.270348 426.271847 439.688657 445.211949 C 435.699453 454.641577 431.409039 463.968309 426.097447 472.751166 C 436.999801 469.98769 448.166633 467.98123 459.473051 468.701497 C 467.789402 469.708402 476.142486 471.016644 484.098854 473.802169 C 502.193529 480.056739 518.076879 492.521781 528.259266 508.749854 C 544.781769 534.231163 547.742449 567.098891 538.632665 595.777307 C 536.017276 601.157266 534.092467 606.86796 530.977508 612.01273 C 522.198321 627.586683 509.238919 640.720544 494.016764 650.076675 C 478.236267 660.050179 460.266483 666.238602 441.90733 669.266666 C 420.007115 672.603417 397.563253 670.817447 376.052408 665.82702 C 355.592127 660.682251 335.83712 652.097835 318.881167 639.441702 C 307.861267 631.151273 297.377669 621.442358 291.096326 608.969966 C 288.738067 604.361723 287.540571 598.717175 289.751898 593.822295 C 292.411367 587.428081 298.67067 583.738546 304.342245 580.320949 C 313.621001 574.992438 322.267949 568.179293 328.189309 559.131848 L 328.12319 559.028953 C 329.122327 557.478172 330.070039 555.912692 330.958977 554.303114 C 325.889823 546.181728 320.526805 538.082391 313.400603 531.607331 C 311.387635 529.850759 309.176308 528.26323 306.671118 527.307773 C 305.179758 526.631603 302.858232 527.197528 302.601101 529.027596 C 301.917867 534.091519 303.262295 539.089295 304.239393 544.013575 C 304.812428 547.776606 299.926939 550.407789 297.010339 548.180838 C 293.491317 544.888186 291.36815 540.426936 288.172379 536.847646 C 281.722064 529.622919 275.24971 522.052758 266.602761 517.378368 C 262.099296 514.813333 256.479147 512.292395 251.37326 514.541395 C 246.818368 517.753201 247.259164 524.162114 247.876278 529.056995 C 249.808434 540.088851 255.222878 550.1579 261.401369 559.367037 C 265.390572 566.488869 271.57641 572.081968 276.770456 578.29979 C 278.761384 580.636985 277.916525 584.738101 274.889726 585.730307 C 271.929046 587.170842 269.387123 584.488212 267.44762 582.621396 C 261.298516 576.138986 253.20991 570.516488 243.989927 570.318047 C 241.646361 570.207802 238.031834 570.92807 238.097953 573.926735 C 238.47263 578.806917 241.36719 583.032978 243.850341 587.112045 C 252.570755 599.812276 264.002065 610.417851 276.190074 619.737234 C 288.216458 629.718087 301.792975 637.552836 314.928696 645.902062 C 323.597684 658.433251 333.207037 670.30297 343.609822 681.45242 C 367.001397 705.80923 395.638443 725.182962 427.081891 737.559808 C 427.272903 734.259806 426.339885 729.453121 430.10869 727.806795 C 433.399967 726.336861 437.212853 729.350226 436.676551 732.878068 C 436.132902 744.733087 439.042156 757.697906 448.019701 766.047132 C 455.968722 773.631993 468.288971 775.26362 478.441972 771.669631 C 486.802402 768.869406 493.502502 762.578088 498.601042 755.559152 C 501.34867 751.759372 502.832684 747.217275 505.521539 743.388097 C 507.967957 740.352683 513.727691 741.837316 513.940743 745.879635 C 513.88197 749.57652 511.479632 752.641333 510.091124 755.941335 C 542.438204 758.322628 575.167307 754.148015 606.05976 744.343554 C 637.091798 734.428848 665.706805 716.848435 688.018429 693.050201 C 698.612226 681.702309 708.059954 668.987379 714.458843 654.802514 C 722.591529 640.713195 726.742358 624.661514 730.261379 608.88177 C 734.257929 586.502022 735.330533 563.306461 731.517648 540.831167 C 729.600185 526.212672 726.301562 511.74852 722.018494 497.637152 C 719.902673 488.979239 716.978726 480.512419 714.42211 471.957402 C 712.879324 466.283456 711.196952 460.653608 709.757019 454.950263 C 693.557766 460.38902 677.630337 466.606841 661.52659 472.332235 C 655.590537 474.360744 648.456988 473.493483 643.769858 469.127778 C 638.928448 464.879669 637.539941 458.309063 635.020057 452.649816 C 626.902064 432.563166 618.233076 412.697005 610.386907 392.50011 C 609.277571 388.193203 609.358383 383.423266 611.452164 379.410346 C 613.582678 375.243082 617.579229 372.259116 622.001882 370.870028 C 627.276741 369.142856 632.46344 367.129046 637.65014 365.151984 C 633.800521 359.66178 630.127221 353.848191 628.797487 347.182039 C 628.510969 345.116782 627.262047 343.499854 625.572329 342.382704 C 620.209311 338.781365 617.682081 332.269557 617.182512 326.051735 C 616.102562 313.873331 623.610787 302.091808 634.013573 296.197372 C 642.550322 291.596478 653.180852 291.816968 661.908613 295.837238 C 665.721498 293.11786 670.100072 290.817413 674.941481 291.096701 C 681.869325 290.802714 688.018429 294.918529 692.419043 299.931005 C 696.540485 306.259072 697.671862 314.306961 695.453188 321.516988 C 696.151115 322.112312 696.863736 322.700285 697.591049 323.288259 C 697.142906 295.616748 690.148943 267.533656 674.280287 244.558585 C 664.501963 230.792651 651.358895 219.378612 636.246939 211.801101 C 599.851883 192.61846 553.693195 194.602872 518.436862 215.468587 M 669.549077 301.268645 L 669.482957 301.180449 C 667.492029 303.150161 665.5011 305.17867 663.039989 306.560408 C 659.072825 304.73769 655.428912 301.841919 650.903406 301.60673 C 637.620753 299.997152 624.881749 312.601838 626.306989 325.890043 C 626.512694 329.939711 628.569742 334.900739 633.051168 335.613657 C 637.400355 335.900294 641.661383 333.688043 644.592677 330.557084 C 649.999774 325.008082 654.701598 318.452176 661.688215 314.733242 C 666.206374 312.087361 671.576738 311.830122 676.682625 311.800723 C 680.451431 312.587138 684.080652 313.858631 687.592326 315.45351 C 687.51886 311.830122 687.107451 308.030342 684.940204 304.987579 C 681.781166 300.026551 674.640271 298.299378 669.549077 301.268645 M 665.126424 323.27356 C 657.023124 327.617215 653.37921 337.179137 645.070206 341.258204 C 661.350271 350.423244 678.857219 357.19964 696.452326 363.432161 L 696.42294 364.049534 C 697.987765 363.351315 697.627782 361.44775 697.89226 360.080711 C 698.839971 350.210103 696.738843 339.942613 691.317053 331.571338 C 687.482127 325.588706 680.921614 321.03926 673.619093 321.03926 C 670.6878 321.311198 667.690387 321.730129 665.126424 323.27356 M 707.369374 349.203199 C 707.861596 355.781154 707.758743 362.528152 705.892707 368.900317 C 704.878876 372.523704 700.779473 375.331279 697.076787 373.883393 C 687.349889 370.693636 677.902161 366.710115 668.278115 363.219021 C 660.542145 366.261785 652.71067 369.091408 644.960007 372.119472 C 637.760339 374.956445 630.200687 376.940856 623.221417 380.299656 C 621.950456 381.32126 620.466442 382.122374 619.489345 383.430616 C 618.453474 385.172488 619.893408 386.877611 621.149676 387.987412 C 620.488482 387.759572 619.173441 387.296543 618.512247 387.061353 C 620.356243 393.940645 623.419776 400.401006 625.939659 407.052458 C 633.499311 425.191446 640.669592 443.521525 648.706773 461.462072 L 648.552494 461.807506 C 650.991565 463.123097 653.606955 464.049156 656.413356 464.247597 L 656.288464 464.519535 C 680.311846 456.111511 704.166256 447.233109 728.072092 438.472301 C 746.65899 431.57831 765.488326 425.272292 783.818093 417.716831 C 786.073499 415.908811 786.551028 413.071839 786.940398 410.389209 C 786.161658 406.479184 784.369088 402.899894 782.907115 399.232408 C 774.267513 378.616581 766.450731 357.66267 757.061776 337.377578 L 757.157282 337.157088 C 754.901875 335.760651 752.646469 333.959981 749.840068 334.040828 C 735.528891 338.649071 721.629124 344.447961 707.369374 349.203199 M 639.50883 349.717676 C 640.882644 352.172466 642.278498 354.619906 643.747818 357.023248 C 644.548597 358.669575 645.738746 360.080711 646.83339 361.543296 C 649.941002 360.382048 653.063307 359.242849 656.178265 358.111 C 653.518796 356.648415 650.903406 355.038837 648.052925 353.987834 C 645.239178 352.481152 642.418083 350.989169 639.50883 349.717676 M 401.692042 493.756525 C 384.552424 503.48749 369.917997 517.187276 357.707948 532.570137 C 352.396356 539.250988 347.452094 546.828499 346.350104 555.449663 L 346.151746 554.920487 C 345.137915 559.491982 346.901099 564.622052 351.162127 566.8931 C 358.560153 570.619384 367.060169 568.899561 374.979804 568.671721 C 378.917582 568.157244 380.62934 573.441657 377.933137 575.940545 C 371.196305 583.400461 362.990153 591.271959 362.321612 601.928982 C 361.653072 608.933218 367.787483 614.291128 374.032093 615.952154 C 385.301777 619.068414 397.100417 616.466631 408.120317 613.526762 C 411.279355 612.622753 414.967348 615.650817 413.718426 619.002267 C 412.278492 622.302269 409.773302 625.006948 408.392141 628.351048 C 406.3204 632.709403 406.408559 638.508293 409.97166 642.087583 C 414.210648 646.320994 420.323019 647.842376 426.016634 648.966875 C 445.477778 652.178681 465.041773 647.680683 483.790296 642.682907 C 492.591523 641.05128 499.137344 634.370429 505.506846 628.593587 C 516.827957 618.171754 524.997376 604.611611 529.816745 590.051913 C 538.551853 561.402896 533.166795 528.04274 513.367708 505.119117 C 500.422999 490.140487 481.351225 480.732909 461.706417 479.027785 C 456.629916 478.351615 451.45791 478.403063 446.388756 479.042484 C 430.637646 480.372775 415.393451 485.973224 401.692042 493.756525 M 731.782125 493.903519 C 732.869422 499.408422 734.493021 504.803081 735.881528 510.241837 C 740.840483 530.762118 743.896669 551.833625 743.536685 572.978628 C 743.521992 593.947239 739.951544 614.849703 733.758361 634.862857 C 745.446801 623.287125 754.233335 608.66863 758.692721 592.80804 C 763.416585 575.60246 764.041046 557.242983 759.699205 539.868361 C 755.651229 522.038059 745.520267 505.868783 731.782125 493.903519 M 315.17848 585.252578 C 310.212179 588.427636 304.812428 591.051469 300.499974 595.152585 C 298.141715 597.401584 298.082942 600.892678 299.390637 603.729651 C 302.32193 610.880881 307.589443 616.863513 313.349177 621.898037 C 328.10115 636.36219 346.680701 646.372441 366.178577 652.840152 C 388.68856 660.057529 412.660515 663.122341 436.199022 660.24127 C 430.880083 659.116771 425.370133 659.212316 420.117314 657.727683 C 411.720151 655.508082 402.867498 651.237923 398.892987 643.05039 C 396.138012 637.648382 397.056337 631.379113 398.481578 625.741915 C 395.410699 626.241693 392.31778 626.682673 389.246901 627.160402 C 380.313436 627.836571 370.873055 626.638575 363.166471 621.758394 C 356.547185 617.613179 352.286157 609.881325 352.616754 602.031877 C 352.866538 593.682651 356.877782 585.958147 361.836737 579.431639 C 354.071381 578.821616 345.909308 576.888653 340.487517 570.861923 C 338.981464 568.429182 337.813355 565.820048 336.997882 563.078621 C 331.737717 572.140765 324.01644 579.681528 315.17848 585.252578 M 601.071419 756.007482 C 611.268499 764.356708 626.982877 768.141789 638.627238 760.556928 C 647.399078 755.250466 651.278083 744.688989 651.300123 734.83308 C 635.409427 743.696783 618.637139 751.178748 601.071419 756.007482 M 637.341583 772.3605 C 640.61082 777.211282 643.799244 782.128212 646.936242 787.067191 C 648.523108 789.53668 648.030886 792.946928 645.981184 795.012185 C 642.939692 799.230896 637.95135 803.743594 639.707188 809.491037 C 641.99198 809.336694 644.137188 808.403286 645.848945 806.881904 C 651.469094 802.119317 656.868845 796.981897 663.282427 793.277663 C 672.17916 788.390132 681.832592 784.921087 690.369341 779.379435 C 691.956207 778.129991 694.277732 776.336672 693.197782 774.050924 C 690.560353 770.772971 685.909955 771.581434 682.37624 772.603039 C 675.477783 774.822639 669.372758 778.850259 662.900404 782.010617 C 660.902129 783.039571 658.250006 783.098369 656.861499 781.077209 C 653.092693 776.571861 650.249559 771.360944 646.972975 766.502812 C 644.026989 768.869406 640.750405 770.758271 637.341583 772.3605 M 448.952719 778.651818 C 447.226268 784.068525 445.60267 789.529331 443.846832 794.938689 C 442.972587 797.378779 441.973449 800.428893 439.100929 801.097713 C 435.449669 802.097268 431.629437 802.222212 427.912057 802.810186 C 424.172638 803.060075 419.91161 804.427114 418.302704 808.160746 C 420.102621 809.439589 422.122936 810.461193 424.378342 810.461193 C 430.160117 810.711082 435.941891 810.733131 441.716318 810.938922 C 452.030945 814.503512 460.839518 821.25786 471.110065 824.917996 C 472.968755 825.520669 475.047842 825.836705 476.943265 825.131137 C 478.302386 823.918441 478.508091 821.941379 479.448456 820.427347 C 481.681822 818.663426 485.472668 819.567436 487.118306 816.921554 C 488.396615 814.679905 486.236714 812.5485 484.51761 811.401951 C 481.659782 809.733576 478.361159 808.447384 475.011109 808.550279 L 475.936781 808.388586 C 469.839103 806.551169 463.447561 806.07344 457.298457 804.522659 C 454.477363 803.883238 453.478225 800.48769 454.433283 798.018201 C 456.086268 792.660291 458.562072 787.581668 460.038739 782.157611 C 459.259999 782.098814 457.68048 781.966519 456.901741 781.907722 C 454.279004 780.731775 451.568109 779.798367 448.952719 778.651818 Z M 448.952719 778.651818 " stroke="#010101" stroke-width="0.6" stroke-opacity="1" stroke-miterlimit="4"/></g><path stroke-linecap="round" transform="matrix(0.531709, 0, 0, 0.531486, -89.086998, -85.221745)" fill-opacity="1" fill="#b4cdd8" fill-rule="nonzero" stroke-linejoin="round" d="M 518.436862 215.468587 C 553.693195 194.602872 599.851883 192.61846 636.246939 211.801101 C 651.358895 219.378612 664.501963 230.792651 674.280287 244.558585 C 690.148943 267.533656 697.142906 295.616748 697.591049 323.288259 C 696.856389 322.700285 696.151115 322.112312 695.453188 321.516988 C 697.671862 314.306961 696.540485 306.259072 692.419043 299.931005 C 692.881878 300.180894 693.778164 300.688021 694.240999 300.93791 C 687.989043 267.188221 665.17785 236.547443 633.800521 222.237634 C 601.703226 206.590185 562.251984 206.898871 530.602832 223.560575 C 512.339184 232.997552 497.109682 248.159923 487.103613 266.049022 L 486.582004 265.439 C 484.679235 263.822072 482.188738 263.792673 480.219849 265.343454 C 480.352088 263.586882 480.4329 261.837661 480.4329 260.088439 C 479.0297 258.567057 478.530131 256.589996 478.280346 254.590885 C 488.521507 238.767044 502.208223 225.118705 518.436862 215.468587 Z M 518.436862 215.468587 " stroke="#b4cdd8" stroke-width="0.6" stroke-opacity="1" stroke-miterlimit="4"/><path stroke-linecap="round" transform="matrix(0.531709, 0, 0, 0.531486, -89.086998, -85.221745)" fill-opacity="1" fill="#828e9c" fill-rule="nonzero" stroke-linejoin="round" d="M 530.602832 223.560575 C 562.251984 206.898871 601.703226 206.590185 633.800521 222.237634 C 665.17785 236.547443 687.989043 267.188221 694.240999 300.93791 C 693.778164 300.688021 692.881878 300.180894 692.419043 299.931005 C 688.018429 294.918529 681.869325 290.802714 674.941481 291.096701 C 670.100072 290.817413 665.721498 293.11786 661.908613 295.837238 C 653.180852 291.816968 642.550322 291.596478 634.013573 296.197372 C 623.610787 302.091808 616.102562 313.873331 617.182512 326.051735 C 617.682081 332.269557 620.209311 338.781365 625.572329 342.382704 C 627.262047 343.499854 628.510969 345.116782 628.797487 347.182039 C 630.127221 353.848191 633.800521 359.66178 637.65014 365.151984 C 632.46344 367.129046 627.276741 369.142856 622.001882 370.870028 C 617.579229 372.259116 613.582678 375.243082 611.452164 379.410346 C 609.358383 383.423266 609.277571 388.193203 610.386907 392.50011 C 607.793557 397.431739 605.611617 402.936642 606.44913 408.617938 C 607.360108 414.556472 609.152678 420.318614 610.761584 426.110155 C 613.567985 435.216397 615.808698 444.506381 619.122015 453.472979 C 601.820772 453.840463 584.703194 450.356719 568.107224 445.748475 C 548.543229 439.920186 529.63308 431.203477 513.551373 418.466497 C 501.569068 409.367604 491.746664 397.541984 484.642502 384.297877 C 476.282071 368.540183 472.469186 350.702531 471.881458 332.960426 C 471.800645 314.711193 474.070745 296.167973 481.270413 279.256381 C 483.092369 274.80983 485.112684 270.436776 487.096266 266.049022 C 497.109682 248.159923 512.339184 232.997552 530.602832 223.560575 M 554.523361 280.62342 C 541.791703 282.769523 531.330145 293.529442 528.839648 306.090029 C 527.002998 315.093376 529.390643 324.743494 534.827127 332.093165 C 542.820227 343.088272 558.380326 347.946405 571.16341 343.198517 C 586.099048 338.303637 595.546775 321.223002 591.939595 305.943036 C 588.978915 289.200485 571.236876 276.926535 554.523361 280.62342 M 525.342666 349.40164 C 519.671091 350.437943 514.29338 353.113223 510.149897 357.133493 C 506.307625 360.918574 506.351705 367.92281 510.451108 371.50945 C 517.173247 377.947761 527.010344 380.013019 536.061355 379.586738 C 542.372085 379.968921 548.609348 378.087405 554.141338 375.147537 C 557.968916 372.700096 562.266677 368.981163 561.678949 363.939289 C 562.083012 359.529486 558.556644 356.060441 555.191902 353.818792 C 546.361288 348.409434 535.348735 347.299634 525.342666 349.40164 Z M 525.342666 349.40164 " stroke="#828e9c" stroke-width="0.6" stroke-opacity="1" stroke-miterlimit="4"/><path stroke-linecap="round" transform="matrix(0.531709, 0, 0, 0.531486, -89.086998, -85.221745)" fill-opacity="1" fill="#b7d9e2" fill-rule="nonzero" stroke-linejoin="round" d="M 453.999834 337.421676 C 455.373648 308.493372 462.830447 279.329877 478.280346 254.590885 C 478.530131 256.589996 479.0297 258.567057 480.4329 260.088439 C 480.4329 261.837661 480.352088 263.586882 480.219849 265.343454 C 482.188738 263.792673 484.679235 263.822072 486.582004 265.439 C 483.731524 270.407377 481.270413 275.581545 478.669716 280.682217 C 474.731939 288.112734 472.542652 296.292918 470.419485 304.377556 C 468.112652 314.792039 465.673581 325.27267 465.291558 335.966441 C 464.439352 346.630814 464.762603 357.317235 464.277727 367.988957 C 464.101409 380.380502 462.852487 392.7206 460.920331 404.957802 C 459.56121 415.570727 457.636401 426.161602 454.220232 436.318848 C 452.758258 440.397915 451.09058 444.403485 449.753499 448.526651 L 449.408209 448.372308 C 446.33733 446.828877 443.00932 445.961616 439.688657 445.211949 C 447.270348 426.271847 450.642437 405.869161 452.023598 385.598769 L 452.288076 385.79721 C 452.648059 386.076497 453.382719 386.620373 453.750049 386.899661 C 454.447976 376.272036 455.057744 365.629713 455.006318 354.98739 C 454.962238 349.122352 455.579353 343.14707 453.999834 337.421676 Z M 453.999834 337.421676 " stroke="#b7d9e2" stroke-width="0.6" stroke-opacity="1" stroke-miterlimit="4"/><path stroke-linecap="round" transform="matrix(0.531709, 0, 0, 0.531486, -89.086998, -85.221745)" fill-opacity="1" fill="#90bfd3" fill-rule="nonzero" stroke-linejoin="round" d="M 486.582004 265.439 L 487.103613 266.049022 C 485.112684 270.436776 483.092369 274.80983 481.270413 279.256381 C 474.070745 296.167973 471.800645 314.711193 471.881458 332.960426 C 472.469186 350.702531 476.282071 368.540183 484.642502 384.297877 C 491.746664 397.541984 501.569068 409.367604 513.551373 418.466497 C 529.63308 431.203477 548.543229 439.920186 568.107224 445.748475 C 584.703194 450.356719 601.820772 453.840463 619.122015 453.472979 C 619.210174 453.531777 619.408532 453.656721 619.511384 453.730218 C 621.656592 460.616859 624.330754 467.341808 626.777172 474.132904 C 629.627653 481.203288 632.999742 489.19238 640.383075 492.558529 C 647.347652 495.542495 655.010156 492.867215 661.908613 490.948951 C 673.310536 487.590152 684.653686 484.003512 695.769092 479.777451 C 702.006356 477.219766 708.537483 475.33825 714.42211 471.957402 C 716.978726 480.512419 719.902673 488.979239 722.018494 497.637152 C 721.423419 504.14161 717.632574 509.690612 713.929887 514.850081 C 705.349059 526.800646 692.441082 535.546754 678.107866 538.949652 C 664.237485 542.477494 649.720604 540.919364 635.931035 537.8619 C 622.038615 534.708892 608.498831 530.078599 595.480656 524.309107 C 592.130606 522.802425 588.83933 521.148749 585.342348 520.031599 C 578.752448 518.061887 573.029446 514.122463 566.946462 511.028252 C 559.541089 506.802191 551.959398 502.862768 544.921355 498.026684 C 530.419167 489.817102 518.187078 478.189923 503.530611 470.259628 C 496.558687 466.511295 489.807162 462.299934 482.453215 459.338017 C 476.678788 457.02287 470.889667 454.751822 464.983001 452.79681 C 459.979966 451.099036 454.572868 450.783 449.753499 448.526651 C 451.09058 444.403485 452.758258 440.397915 454.220232 436.318848 C 457.636401 426.161602 459.56121 415.570727 460.920331 404.957802 C 462.852487 392.7206 464.101409 380.380502 464.277727 367.988957 C 464.762603 357.317235 464.439352 346.630814 465.291558 335.966441 C 465.673581 325.27267 468.112652 314.792039 470.419485 304.377556 C 472.542652 296.292918 474.731939 288.112734 478.669716 280.682217 C 481.270413 275.581545 483.731524 270.407377 486.582004 265.439 Z M 486.582004 265.439 " stroke="#90bfd3" stroke-width="0.6" stroke-opacity="1" stroke-miterlimit="4"/><path stroke-linecap="round" transform="matrix(0.531709, 0, 0, 0.531486, -89.086998, -85.221745)" fill-opacity="1" fill="#fefefe" fill-rule="nonzero" stroke-linejoin="round" d="M 554.523361 280.62342 C 571.236876 276.926535 588.978915 289.200485 591.939595 305.943036 C 595.546775 321.223002 586.099048 338.303637 571.16341 343.198517 C 558.380326 347.946405 542.820227 343.088272 534.827127 332.093165 C 529.390643 324.743494 527.002998 315.093376 528.839648 306.090029 C 531.330145 293.529442 541.791703 282.769523 554.523361 280.62342 M 553.421371 288.546365 C 548.109779 290.200041 543.319796 293.632337 540.131372 298.189133 C 532.946397 308.493372 534.738967 324.280465 544.943395 331.96822 C 553.480144 339.663326 567.343178 339.391388 576.070939 332.159312 C 585.48928 324.949285 587.788766 310.75707 582.271469 300.48958 C 576.99661 290.369083 564.338419 284.908278 553.421371 288.546365 Z M 553.421371 288.546365 " stroke="#fefefe" stroke-width="0.6" stroke-opacity="1" stroke-miterlimit="4"/><path stroke-linecap="round" transform="matrix(0.531709, 0, 0, 0.531486, -89.086998, -85.221745)" fill-opacity="1" fill="#010101" fill-rule="nonzero" stroke-linejoin="round" d="M 553.421371 288.546365 C 564.338419 284.908278 576.99661 290.369083 582.271469 300.48958 C 587.788766 310.75707 585.48928 324.949285 576.070939 332.159312 C 567.343178 339.391388 553.480144 339.663326 544.943395 331.96822 C 534.738967 324.280465 532.946397 308.493372 540.131372 298.189133 C 543.319796 293.632337 548.109779 290.200041 553.421371 288.546365 M 565.521221 296.748597 C 559.82026 298.982897 558.806429 307.751055 564.272299 310.830567 C 568.930044 314.248164 576.159098 310.830567 576.702746 305.156621 C 577.929629 299.166639 570.84016 294.286458 565.521221 296.748597 Z M 565.521221 296.748597 " stroke="#010101" stroke-width="0.6" stroke-opacity="1" stroke-miterlimit="4"/><path stroke-linecap="round" transform="matrix(0.531709, 0, 0, 0.531486, -89.086998, -85.221745)" fill-opacity="1" fill="#ffffff" fill-rule="nonzero" stroke-linejoin="round" d="M 565.521221 296.748597 C 570.84016 294.286458 577.929629 299.166639 576.702746 305.156621 C 576.159098 310.830567 568.930044 314.248164 564.272299 310.830567 C 558.806429 307.751055 559.82026 298.982897 565.521221 296.748597 Z M 565.521221 296.748597 " stroke="#ffffff" stroke-width="0.6" stroke-opacity="1" stroke-miterlimit="4"/><path stroke-linecap="round" transform="matrix(0.531709, 0, 0, 0.531486, -89.086998, -85.221745)" fill-opacity="1" fill="#f8d7d3" fill-rule="nonzero" stroke-linejoin="round" d="M 669.549077 301.268645 C 674.640271 298.299378 681.781166 300.026551 684.940204 304.987579 C 687.107451 308.030342 687.51886 311.830122 687.592326 315.45351 C 684.080652 313.858631 680.451431 312.587138 676.682625 311.800723 C 674.610884 308.08914 672.267319 304.531899 669.549077 301.268645 Z M 669.549077 301.268645 " stroke="#f8d7d3" stroke-width="0.6" stroke-opacity="1" stroke-miterlimit="4"/><path stroke-linecap="round" transform="matrix(0.531709, 0, 0, 0.531486, -89.086998, -85.221745)" fill-opacity="1" fill="#e45553" fill-rule="nonzero" stroke-linejoin="round" d="M 669.482957 301.180449 L 669.549077 301.268645 C 672.267319 304.531899 674.610884 308.08914 676.682625 311.800723 C 671.576738 311.830122 666.206374 312.087361 661.688215 314.733242 C 654.701598 318.452176 649.999774 325.008082 644.592677 330.557084 C 641.661383 333.688043 637.400355 335.900294 633.051168 335.606307 C 628.569742 334.900739 626.512694 329.939711 626.306989 325.890043 C 624.881749 312.601838 637.620753 299.997152 650.903406 301.60673 C 655.428912 301.841919 659.072825 304.73769 663.039989 306.560408 C 665.5011 305.17867 667.492029 303.150161 669.482957 301.180449 Z M 669.482957 301.180449 " stroke="#e45553" stroke-width="0.6" stroke-opacity="1" stroke-miterlimit="4"/><path stroke-linecap="round" transform="matrix(0.531709, 0, 0, 0.531486, -89.086998, -85.221745)" fill-opacity="1" fill="#feda8d" fill-rule="nonzero" stroke-linejoin="round" d="M 665.126424 323.27356 C 667.690387 321.730129 670.6878 321.311198 673.619093 321.03926 C 674.001116 321.627233 674.772509 322.81788 675.147186 323.413203 C 668.601365 321.568436 662.577154 325.787147 658.448364 330.461538 C 655.223207 334.298066 651.652759 337.870006 648.728813 341.971122 C 658.338165 346.71166 667.7712 351.988724 678.019707 355.266677 C 684.073305 357.20699 689.693454 360.286502 695.842558 361.932829 C 693.212475 347.623019 685.667517 334.43036 675.602675 324.030576 C 680.179607 325.302069 685.491199 326.558863 688.099242 330.968665 C 690.016704 333.717442 689.091033 337.186487 689.730187 340.273348 C 691.287666 344.661102 695.247484 347.82881 696.408246 352.407655 C 697.09148 356.053092 696.547832 359.772025 696.452326 363.432161 C 678.857219 357.19964 661.350271 350.423244 645.070206 341.258204 C 653.37921 337.179137 657.023124 327.617215 665.126424 323.27356 Z M 665.126424 323.27356 " stroke="#feda8d" stroke-width="0.6" stroke-opacity="1" stroke-miterlimit="4"/><path stroke-linecap="round" transform="matrix(0.531709, 0, 0, 0.531486, -89.086998, -85.221745)" fill-opacity="1" fill="#f9dfa4" fill-rule="nonzero" stroke-linejoin="round" d="M 673.619093 321.03926 C 680.921614 321.03926 687.482127 325.588706 691.317053 331.571338 C 696.738843 339.942613 698.839971 350.210103 697.89226 360.080711 C 697.627782 361.44775 697.987765 363.351315 696.42294 364.049534 L 696.452326 363.432161 C 696.547832 359.772025 697.09148 356.053092 696.408246 352.407655 C 695.247484 347.82881 691.287666 344.661102 689.730187 340.273348 C 689.091033 337.186487 690.016704 333.717442 688.099242 330.968665 C 685.491199 326.558863 680.179607 325.302069 675.602675 324.030576 L 675.147186 323.413203 C 674.772509 322.81788 674.001116 321.627233 673.619093 321.03926 Z M 673.619093 321.03926 " stroke="#f9dfa4" stroke-width="0.6" stroke-opacity="1" stroke-miterlimit="4"/><path stroke-linecap="round" transform="matrix(0.531709, 0, 0, 0.531486, -89.086998, -85.221745)" fill-opacity="1" fill="#fbb043" fill-rule="nonzero" stroke-linejoin="round" d="M 658.448364 330.461538 C 662.577154 325.787147 668.601365 321.568436 675.147186 323.413203 L 675.602675 324.030576 C 685.667517 334.43036 693.212475 347.623019 695.842558 361.932829 C 689.693454 360.286502 684.073305 357.20699 678.019707 355.266677 C 667.7712 351.988724 658.338165 346.71166 648.728813 341.971122 C 651.652759 337.870006 655.223207 334.298066 658.448364 330.461538 Z M 658.448364 330.461538 " stroke="#fbb043" stroke-width="0.6" stroke-opacity="1" stroke-miterlimit="4"/><path stroke-linecap="round" transform="matrix(0.531709, 0, 0, 0.531486, -89.086998, -85.221745)" fill-opacity="1" fill="#ffffff" fill-rule="nonzero" stroke-linejoin="round" d="M 707.369374 349.203199 C 721.629124 344.447961 735.528891 338.649071 749.840068 334.040828 C 741.053534 352.561998 730.731562 370.289404 721.37934 388.516588 C 718.271728 393.448217 715.942856 398.828176 712.732392 403.678959 C 709.749672 407.89767 703.887085 408.169608 699.449739 406.368939 C 674.111315 397.461138 648.589227 389.097212 623.221417 380.299656 C 630.200687 376.940856 637.760339 374.956445 644.960007 372.119472 C 652.71067 369.091408 660.542145 366.261785 668.278115 363.219021 C 677.902161 366.710115 687.349889 370.693636 697.076787 373.883393 C 700.779473 375.331279 704.878876 372.523704 705.892707 368.900317 C 707.758743 362.528152 707.861596 355.781154 707.369374 349.203199 Z M 707.369374 349.203199 " stroke="#ffffff" stroke-width="0.6" stroke-opacity="1" stroke-miterlimit="4"/><path stroke-linecap="round" transform="matrix(0.531709, 0, 0, 0.531486, -89.086998, -85.221745)" fill-opacity="1" fill="#252121" fill-rule="nonzero" stroke-linejoin="round" d="M 749.840068 334.040828 C 752.646469 333.959981 754.901875 335.760651 757.157282 337.157088 L 757.061776 337.377578 C 749.421312 353.686498 740.620085 369.422143 732.193535 385.34153 C 739.540135 388.979617 747.09244 392.198773 754.578625 395.542873 C 765.341394 400.547999 776.038044 405.700119 786.940398 410.389209 C 786.551028 413.071839 786.073499 415.908811 783.818093 417.716831 C 765.341394 409.257359 746.769189 400.98163 728.299837 392.478061 C 724.171048 399.430849 721.74667 408.022615 714.7674 412.777852 C 709.301529 416.60703 702.109208 415.776517 696.151115 413.681861 C 691.508064 412.109032 686.887053 410.492104 682.207269 409.036869 C 673.729292 427.499242 664.950105 445.821972 656.413356 464.247597 C 653.606955 464.049156 650.991565 463.123097 648.552494 461.807506 L 648.706773 461.462072 C 657.059857 442.933551 666.397385 424.86806 674.677004 406.317491 C 656.846806 400.173166 638.906408 394.308129 621.149676 387.987412 C 619.893408 386.877611 618.453474 385.172488 619.489345 383.430616 C 620.466442 382.122374 621.950456 381.32126 623.221417 380.299656 C 648.589227 389.097212 674.111315 397.461138 699.449739 406.368939 C 703.887085 408.169608 709.749672 407.89767 712.732392 403.678959 C 715.942856 398.828176 718.271728 393.448217 721.37934 388.516588 C 730.731562 370.289404 741.053534 352.561998 749.840068 334.040828 Z M 749.840068 334.040828 " stroke="#252121" stroke-width="0.6" stroke-opacity="1" stroke-miterlimit="4"/><path stroke-linecap="round" transform="matrix(0.531709, 0, 0, 0.531486, -89.086998, -85.221745)" fill-opacity="1" fill="#cde5ec" fill-rule="nonzero" stroke-linejoin="round" d="M 453.999834 337.421676 C 455.579353 343.14707 454.962238 349.122352 455.013664 354.98739 C 455.057744 365.629713 454.447976 376.272036 453.750049 386.899661 C 453.382719 386.620373 452.648059 386.076497 452.288076 385.79721 C 452.383582 375.52237 453.169668 365.24753 453.3166 354.957991 C 453.500265 349.107653 453.390066 343.249965 453.999834 337.421676 Z M 453.999834 337.421676 " stroke="#cde5ec" stroke-width="0.6" stroke-opacity="1" stroke-miterlimit="4"/><path stroke-linecap="round" transform="matrix(0.531709, 0, 0, 0.531486, -89.086998, -85.221745)" fill-opacity="1" fill="#ffffff" fill-rule="nonzero" stroke-linejoin="round" d="M 732.193535 385.34153 C 740.620085 369.422143 749.421312 353.686498 757.061776 337.377578 C 766.450731 357.66267 774.267513 378.616581 782.907115 399.232408 C 784.369088 402.899894 786.161658 406.479184 786.940398 410.389209 C 776.038044 405.700119 765.341394 400.547999 754.578625 395.542873 C 747.09244 392.198773 739.540135 388.979617 732.193535 385.34153 Z M 732.193535 385.34153 " stroke="#ffffff" stroke-width="0.6" stroke-opacity="1" stroke-miterlimit="4"/><path stroke-linecap="round" transform="matrix(0.531709, 0, 0, 0.531486, -89.086998, -85.221745)" fill-opacity="1" fill="#f8816f" fill-rule="nonzero" stroke-linejoin="round" d="M 525.342666 349.40164 C 535.348735 347.299634 546.361288 348.409434 555.191902 353.818792 C 558.556644 356.060441 562.083012 359.529486 561.678949 363.939289 C 562.266677 368.981163 557.968916 372.700096 554.141338 375.147537 C 548.609348 378.087405 542.372085 379.968921 536.061355 379.586738 C 527.010344 380.013019 517.173247 377.947761 510.451108 371.50945 C 506.351705 367.92281 506.307625 360.918574 510.149897 357.133493 C 514.29338 353.113223 519.671091 350.437943 525.342666 349.40164 Z M 525.342666 349.40164 " stroke="#f8816f" stroke-width="0.6" stroke-opacity="1" stroke-miterlimit="4"/><path stroke-linecap="round" transform="matrix(0.531709, 0, 0, 0.531486, -89.086998, -85.221745)" fill-opacity="1" fill="#feda8d" fill-rule="nonzero" stroke-linejoin="round" d="M 639.50883 349.717676 C 642.418083 350.989169 645.239178 352.481152 648.052925 353.987834 C 646.363207 353.6277 644.673489 353.311665 642.991118 353.017678 C 643.18213 354.017233 643.556806 356.016343 643.747818 357.023248 C 642.278498 354.619906 640.882644 352.172466 639.50883 349.717676 Z M 639.50883 349.717676 " stroke="#feda8d" stroke-width="0.6" stroke-opacity="1" stroke-miterlimit="4"/><path stroke-linecap="round" transform="matrix(0.531709, 0, 0, 0.531486, -89.086998, -85.221745)" fill-opacity="1" fill="#df9848" fill-rule="nonzero" stroke-linejoin="round" d="M 642.991118 353.017678 C 644.673489 353.311665 646.363207 353.6277 648.052925 353.987834 C 650.903406 355.038837 653.518796 356.648415 656.178265 358.111 C 653.063307 359.242849 649.941002 360.382048 646.83339 361.543296 C 645.738746 360.080711 644.548597 358.669575 643.747818 357.023248 C 643.556806 356.016343 643.18213 354.017233 642.991118 353.017678 Z M 642.991118 353.017678 " stroke="#df9848" stroke-width="0.6" stroke-opacity="1" stroke-miterlimit="4"/><path stroke-linecap="round" transform="matrix(0.531709, 0, 0, 0.531486, -89.086998, -85.221745)" fill-opacity="1" fill="#fefefe" fill-rule="nonzero" stroke-linejoin="round" d="M 618.512247 387.061353 C 619.173441 387.296543 620.488482 387.759572 621.149676 387.987412 C 638.906408 394.308129 656.846806 400.173166 674.677004 406.317491 C 666.397385 424.86806 657.059857 442.933551 648.706773 461.462072 C 640.669592 443.521525 633.499311 425.191446 625.939659 407.052458 C 623.419776 400.401006 620.36359 393.940645 618.512247 387.061353 Z M 618.512247 387.061353 " stroke="#fefefe" stroke-width="0.6" stroke-opacity="1" stroke-miterlimit="4"/><path stroke-linecap="round" transform="matrix(0.531709, 0, 0, 0.531486, -89.086998, -85.221745)" fill-opacity="1" fill="#6d7b8a" fill-rule="nonzero" stroke-linejoin="round" d="M 610.386907 392.50011 C 618.233076 412.697005 626.902064 432.563166 635.020057 452.649816 C 629.818664 452.642467 624.668698 453.23779 619.511384 453.730218 C 619.408532 453.656721 619.210174 453.531777 619.122015 453.472979 C 615.808698 444.506381 613.567985 435.216397 610.761584 426.110155 C 609.152678 420.318614 607.360108 414.556472 606.44913 408.617938 C 605.611617 402.936642 607.793557 397.431739 610.386907 392.50011 Z M 610.386907 392.50011 " stroke="#6d7b8a" stroke-width="0.6" stroke-opacity="1" stroke-miterlimit="4"/><path stroke-linecap="round" transform="matrix(0.531709, 0, 0, 0.531486, -89.086998, -85.221745)" fill-opacity="1" fill="#ffffff" fill-rule="nonzero" stroke-linejoin="round" d="M 728.299837 392.478061 C 746.769189 400.98163 765.341394 409.257359 783.818093 417.716831 C 765.488326 425.272292 746.65899 431.57831 728.072092 438.472301 C 704.173603 447.233109 680.311846 456.111511 656.288464 464.519535 L 656.413356 464.247597 C 664.950105 445.821972 673.729292 427.499242 682.207269 409.036869 C 686.887053 410.492104 691.508064 412.109032 696.151115 413.681861 C 702.109208 415.776517 709.301529 416.60703 714.7674 412.777852 C 721.74667 408.022615 724.171048 399.430849 728.299837 392.478061 Z M 728.299837 392.478061 " stroke="#ffffff" stroke-width="0.6" stroke-opacity="1" stroke-miterlimit="4"/><path stroke-linecap="round" transform="matrix(0.531709, 0, 0, 0.531486, -89.086998, -85.221745)" fill-opacity="1" fill="#dedfe2" fill-rule="nonzero" stroke-linejoin="round" d="M 439.688657 445.211949 C 443.00932 445.961616 446.33733 446.828877 449.408209 448.372308 C 446.631194 455.310397 442.847695 461.792807 440.041294 468.708847 C 446.447529 467.98123 453.169668 466.511295 459.473051 468.701497 C 448.166633 467.98123 436.999801 469.98769 426.097447 472.751166 C 431.409039 463.968309 435.699453 454.641577 439.688657 445.211949 Z M 439.688657 445.211949 " stroke="#dedfe2" stroke-width="0.6" stroke-opacity="1" stroke-miterlimit="4"/><path stroke-linecap="round" transform="matrix(0.531709, 0, 0, 0.531486, -89.086998, -85.221745)" fill-opacity="1" fill="#acafb8" fill-rule="nonzero" stroke-linejoin="round" d="M 449.408209 448.372308 L 449.753499 448.526651 C 454.572868 450.783 459.979966 451.099036 464.983001 452.79681 C 470.889667 454.751822 476.678788 457.02287 482.453215 459.338017 C 489.807162 462.299934 496.558687 466.511295 503.530611 470.259628 C 518.187078 478.189923 530.419167 489.817102 544.921355 498.026684 C 551.959398 502.862768 559.541089 506.802191 566.946462 511.028252 C 573.029446 514.122463 578.752448 518.061887 585.342348 520.031599 C 585.46724 540.948762 589.963359 562.248108 600.733475 580.350348 C 605.067969 587.369283 610.577919 594.887997 618.989776 597.019401 C 625.52825 598.577532 630.781069 593.418063 634.491102 588.773071 C 638.458266 600.319404 643.880057 611.762841 652.490272 620.589796 C 658.058995 626.006503 665.861084 630.467754 673.883571 628.54214 C 681.678313 626.498931 687.401315 620.178214 691.757849 613.739903 C 698.612226 603.222524 703.123039 591.257259 705.481297 578.946561 C 707.979141 581.680638 710.903088 584.958591 715.009838 584.517611 C 719.513303 583.951687 722.231545 579.769724 724.119622 576.05814 C 729.41652 565.129179 730.893187 552.818481 731.517648 540.831167 C 735.330533 563.306461 734.257929 586.502022 730.261379 608.88177 C 726.742358 624.661514 722.591529 640.713195 714.458843 654.802514 C 709.088478 658.587594 705.371098 664.099847 700.639888 668.583147 C 691.059922 677.821683 680.870187 686.58984 669.350719 693.358887 C 659.6679 699.231274 649.963041 705.191857 639.413324 709.388519 C 623.728333 715.598991 607.683358 721.20679 590.97719 723.948217 C 547.63225 732.121052 502.340461 729.541317 460.112205 716.848435 C 439.70335 710.329277 419.390001 702.031499 402.331196 688.860889 C 411.558525 688.927036 420.807895 689.801647 430.027878 688.809441 C 459.267346 686.663337 488.58028 675.447739 509.356464 654.317436 C 520.751041 644.329233 528.200493 630.76909 533.901455 616.92966 C 536.428685 610.160613 538.999995 603.126978 538.632665 595.777307 C 547.742449 567.098891 544.781769 534.231163 528.259266 508.749854 C 518.076879 492.521781 502.193529 480.056739 484.098854 473.802169 C 476.142486 471.016644 467.789402 469.708402 459.473051 468.701497 C 453.169668 466.511295 446.447529 467.98123 440.041294 468.708847 C 442.847695 461.792807 446.631194 455.310397 449.408209 448.372308 Z M 449.408209 448.372308 " stroke="#acafb8" stroke-width="0.6" stroke-opacity="1" stroke-miterlimit="4"/><path stroke-linecap="round" transform="matrix(0.531709, 0, 0, 0.531486, -89.086998, -85.221745)" fill-opacity="1" fill="#749cb5" fill-rule="nonzero" stroke-linejoin="round" d="M 619.511384 453.730218 C 624.668698 453.23779 629.818664 452.642467 635.020057 452.649816 C 637.539941 458.309063 638.928448 464.879669 643.769858 469.127778 C 648.456988 473.493483 655.590537 474.360744 661.52659 472.332235 C 677.630337 466.606841 693.557766 460.38902 709.757019 454.950263 C 711.196952 460.653608 712.879324 466.283456 714.42211 471.957402 C 708.537483 475.33825 702.006356 477.219766 695.769092 479.777451 C 684.64634 484.003512 673.310536 487.590152 661.908613 490.948951 C 655.010156 492.867215 647.347652 495.542495 640.383075 492.558529 C 632.999742 489.19238 629.627653 481.203288 626.777172 474.132904 C 624.330754 467.341808 621.656592 460.616859 619.511384 453.730218 Z M 619.511384 453.730218 " stroke="#749cb5" stroke-width="0.6" stroke-opacity="1" stroke-miterlimit="4"/><path stroke-linecap="round" transform="matrix(0.531709, 0, 0, 0.531486, -89.086998, -85.221745)" fill-opacity="1" fill="#dadce1" fill-rule="nonzero" stroke-linejoin="round" d="M 401.692042 493.756525 C 415.393451 485.973224 430.637646 480.372775 446.388756 479.042484 C 451.391791 480.409523 456.732769 480.71086 461.706417 479.027785 C 481.351225 480.732909 500.422999 490.140487 513.367708 505.119117 L 513.47056 506.508204 C 504.522402 499.202632 493.693513 494.616437 482.688306 491.41198 C 463.058191 486.597946 441.980796 488.08258 423.100034 495.22646 C 405.211063 501.150294 389.518726 512.211549 375.626305 524.720689 C 364.76803 534.282611 355.672939 545.601104 346.981912 557.110688 C 346.820286 556.699107 346.511729 555.868594 346.350104 555.449663 C 347.452094 546.828499 352.396356 539.250988 357.707948 532.570137 C 369.917997 517.187276 384.552424 503.48749 401.692042 493.756525 Z M 401.692042 493.756525 " stroke="#dadce1" stroke-width="0.6" stroke-opacity="1" stroke-miterlimit="4"/><path stroke-linecap="round" transform="matrix(0.531709, 0, 0, 0.531486, -89.086998, -85.221745)" fill-opacity="1" fill="#f2f3f4" fill-rule="nonzero" stroke-linejoin="round" d="M 446.388756 479.042484 C 451.45791 478.403063 456.629916 478.351615 461.706417 479.027785 C 456.732769 480.71086 451.391791 480.409523 446.388756 479.042484 Z M 446.388756 479.042484 " stroke="#f2f3f4" stroke-width="0.6" stroke-opacity="1" stroke-miterlimit="4"/><path stroke-linecap="round" transform="matrix(0.531709, 0, 0, 0.531486, -89.086998, -85.221745)" fill-opacity="1" fill="#acafb8" fill-rule="nonzero" stroke-linejoin="round" d="M 423.100034 495.22646 C 441.980796 488.08258 463.058191 486.597946 482.688306 491.41198 C 493.693513 494.616437 504.522402 499.202632 513.47056 506.508204 L 513.367708 505.119117 C 533.166795 528.04274 538.551853 561.402896 529.816745 590.051913 C 524.997376 604.611611 516.827957 618.171754 505.506846 628.593587 C 499.137344 634.370429 492.591523 641.05128 483.790296 642.682907 C 465.041773 647.680683 445.477778 652.178681 426.016634 648.966875 C 420.323019 647.842376 414.210648 646.320994 409.97166 642.087583 C 406.408559 638.508293 406.3204 632.709403 408.392141 628.351048 C 409.773302 625.006948 412.278492 622.302269 413.718426 619.002267 C 414.967348 615.650817 411.279355 612.622753 408.120317 613.526762 C 397.100417 616.466631 385.301777 619.068414 374.032093 615.952154 C 367.787483 614.291128 361.653072 608.933218 362.321612 601.928982 C 362.990153 591.271959 371.203652 583.400461 377.933137 575.940545 C 380.62934 573.441657 378.917582 568.157244 374.979804 568.671721 C 367.060169 568.899561 358.560153 570.619384 351.162127 566.8931 C 346.901099 564.622052 345.137915 559.491982 346.151746 554.920487 L 346.350104 555.449663 C 346.511729 555.868594 346.820286 556.699107 346.981912 557.110688 C 355.672939 545.601104 364.76803 534.282611 375.633652 524.720689 C 389.518726 512.211549 405.211063 501.150294 423.100034 495.22646 Z M 423.100034 495.22646 " stroke="#acafb8" stroke-width="0.6" stroke-opacity="1" stroke-miterlimit="4"/><path stroke-linecap="round" transform="matrix(0.531709, 0, 0, 0.531486, -89.086998, -85.221745)" fill-opacity="1" fill="#d9dcdf" fill-rule="nonzero" stroke-linejoin="round" d="M 731.782125 493.903519 C 745.520267 505.868783 755.651229 522.038059 759.699205 539.868361 C 764.041046 557.242983 763.416585 575.60246 758.692721 592.80804 C 757.531958 587.567725 759.096784 582.268612 758.80292 576.991548 C 758.45763 567.56192 757.583384 558.080845 755.298592 548.901106 C 752.727282 539.941857 749.61967 531.070805 745.16763 522.861222 C 742.559587 518.341175 739.929505 513.659434 735.881528 510.241837 C 734.493021 504.803081 732.869422 499.408422 731.782125 493.903519 Z M 731.782125 493.903519 " stroke="#d9dcdf" stroke-width="0.6" stroke-opacity="1" stroke-miterlimit="4"/><path stroke-linecap="round" transform="matrix(0.531709, 0, 0, 0.531486, -89.086998, -85.221745)" fill-opacity="1" fill="#ffffff" fill-rule="nonzero" stroke-linejoin="round" d="M 713.929887 514.850081 C 717.632574 509.690612 721.423419 504.14161 722.018494 497.637152 C 726.301562 511.74852 729.600185 526.212672 731.517648 540.831167 C 730.893187 552.818481 729.41652 565.129179 724.119622 576.05814 C 722.231545 579.769724 719.513303 583.951687 715.009838 584.517611 C 710.903088 584.958591 707.979141 581.680638 705.481297 578.946561 C 703.123039 591.257259 698.612226 603.222524 691.757849 613.739903 C 687.401315 620.178214 681.678313 626.498931 673.883571 628.54214 C 665.861084 630.467754 658.058995 626.006503 652.490272 620.589796 C 643.880057 611.762841 638.458266 600.319404 634.491102 588.773071 C 630.781069 593.418063 625.52825 598.577532 618.989776 597.019401 C 610.577919 594.887997 605.067969 587.369283 600.733475 580.350348 C 589.963359 562.248108 585.46724 540.948762 585.342348 520.031599 C 588.83933 521.148749 592.130606 522.802425 595.480656 524.309107 C 608.498831 530.078599 622.038615 534.708892 635.931035 537.8619 C 649.720604 540.919364 664.237485 542.477494 678.107866 538.949652 C 692.441082 535.546754 705.349059 526.800646 713.929887 514.850081 Z M 713.929887 514.850081 " stroke="#ffffff" stroke-width="0.6" stroke-opacity="1" stroke-miterlimit="4"/><path stroke-linecap="round" transform="matrix(0.531709, 0, 0, 0.531486, -89.086998, -85.221745)" fill-opacity="1" fill="#acafb9" fill-rule="nonzero" stroke-linejoin="round" d="M 735.881528 510.241837 C 739.929505 513.659434 742.559587 518.341175 745.16763 522.861222 C 749.61967 531.070805 752.727282 539.941857 755.298592 548.901106 C 757.583384 558.080845 758.45763 567.56192 758.80292 576.991548 C 759.096784 582.268612 757.531958 587.567725 758.692721 592.80804 C 754.233335 608.66863 745.446801 623.287125 733.758361 634.862857 C 739.951544 614.849703 743.521992 593.947239 743.536685 572.978628 C 743.896669 551.833625 740.840483 530.762118 735.881528 510.241837 Z M 735.881528 510.241837 " stroke="#acafb9" stroke-width="0.6" stroke-opacity="1" stroke-miterlimit="4"/><path stroke-linecap="round" transform="matrix(0.531709, 0, 0, 0.531486, -89.086998, -85.221745)" fill-opacity="1" fill="#b2c8d3" fill-rule="nonzero" stroke-linejoin="round" d="M 251.37326 514.541395 C 256.479147 512.292395 262.099296 514.813333 266.602761 517.378368 C 275.24971 522.052758 281.722064 529.622919 288.172379 536.847646 C 291.36815 540.426936 293.491317 544.888186 297.010339 548.180838 C 299.926939 550.407789 304.812428 547.776606 304.239393 544.013575 C 303.262295 539.089295 301.917867 534.091519 302.601101 529.027596 C 302.858232 527.197528 305.179758 526.631603 306.671118 527.307773 C 309.183655 528.26323 311.387635 529.850759 313.400603 531.607331 C 320.526805 538.082391 325.889823 546.181728 330.958977 554.303114 C 330.070039 555.912692 329.122327 557.478172 328.12319 559.028953 C 324.317651 553.28886 320.203555 547.453221 314.289542 543.712238 C 312.438199 542.418696 310.160753 542.220255 308.022892 541.852772 C 305.980537 549.400884 306.649078 557.220934 307.53067 564.879291 C 301.058315 558.536525 295.357354 551.458792 288.649908 545.351215 C 281.486973 537.972145 273.501219 531.070805 263.84044 527.241626 C 261.709926 526.469911 259.138616 525.712894 257.052181 526.977038 C 254.569031 530.879713 255.678367 535.811342 256.12651 540.118249 C 256.897903 546.777051 259.608798 552.958124 261.401369 559.367037 C 255.222878 550.1579 249.808434 540.088851 247.883625 529.056995 C 247.259164 524.162114 246.818368 517.753201 251.37326 514.541395 Z M 251.37326 514.541395 " stroke="#b2c8d3" stroke-width="0.6" stroke-opacity="1" stroke-miterlimit="4"/><path stroke-linecap="round" transform="matrix(0.531709, 0, 0, 0.531486, -89.086998, -85.221745)" fill-opacity="1" fill="#818d9b" fill-rule="nonzero" stroke-linejoin="round" d="M 257.052181 526.977038 C 259.138616 525.712894 261.709926 526.469911 263.84044 527.241626 C 273.501219 531.070805 281.486973 537.972145 288.649908 545.351215 C 295.357354 551.458792 301.058315 558.536525 307.53067 564.879291 C 306.649078 557.220934 305.980537 549.400884 308.022892 541.852772 C 310.160753 542.220255 312.438199 542.418696 314.289542 543.712238 C 320.203555 547.453221 324.317651 553.28886 328.12319 559.028953 L 328.189309 559.131848 C 322.267949 568.179293 313.621001 574.992438 304.342245 580.320949 C 298.67067 583.738546 292.411367 587.428081 289.751898 593.822295 C 287.540571 598.717175 288.738067 604.361723 291.096326 608.969966 C 297.377669 621.442358 307.861267 631.151273 318.881167 639.441702 C 317.492659 641.536358 316.162925 643.689811 314.928696 645.902062 C 301.792975 637.552836 288.216458 629.718087 276.190074 619.737234 C 264.002065 610.417851 252.570755 599.812276 243.850341 587.112045 C 241.36719 583.032978 238.47263 578.806917 238.097953 573.926735 C 238.031834 570.92807 241.646361 570.207802 243.989927 570.318047 C 253.20991 570.516488 261.298516 576.138986 267.44762 582.621396 C 269.387123 584.488212 271.929046 587.170842 274.889726 585.730307 C 277.916525 584.738101 278.761384 580.636985 276.770456 578.29979 C 271.57641 572.081968 265.390572 566.488869 261.401369 559.367037 C 259.608798 552.958124 256.897903 546.777051 256.12651 540.118249 C 255.678367 535.811342 254.569031 530.879713 257.052181 526.977038 Z M 257.052181 526.977038 " stroke="#818d9b" stroke-width="0.6" stroke-opacity="1" stroke-miterlimit="4"/><path stroke-linecap="round" transform="matrix(0.531709, 0, 0, 0.531486, -89.086998, -85.221745)" fill-opacity="1" fill="#adbbc4" fill-rule="nonzero" stroke-linejoin="round" d="M 315.17848 585.252578 C 324.01644 579.681528 331.737717 572.140765 336.997882 563.078621 C 337.813355 565.820048 338.981464 568.429182 340.487517 570.861923 C 333.816805 577.726515 327.359143 584.98799 319.24115 590.213606 C 313.510802 593.748798 306.840089 595.240781 300.331002 596.666617 L 300.499974 595.152585 C 304.812428 591.051469 310.212179 588.427636 315.17848 585.252578 Z M 315.17848 585.252578 " stroke="#adbbc4" stroke-width="0.6" stroke-opacity="1" stroke-miterlimit="4"/><path stroke-linecap="round" transform="matrix(0.531709, 0, 0, 0.531486, -89.086998, -85.221745)" fill-opacity="1" fill="#818d9b" fill-rule="nonzero" stroke-linejoin="round" d="M 340.487517 570.861923 C 345.909308 576.888653 354.071381 578.821616 361.836737 579.431639 C 356.877782 585.958147 352.866538 593.682651 352.616754 602.031877 C 352.293503 609.881325 356.547185 617.613179 363.166471 621.758394 C 370.873055 626.638575 380.313436 627.836571 389.246901 627.160402 C 389.327714 627.571983 389.481993 628.402496 389.548112 628.806728 C 378.946968 628.32165 368.602955 631.21007 358.009158 630.960181 C 347.128844 631.548155 336.586473 628.358398 326.139608 625.800713 C 321.746341 624.882004 317.999575 621.523204 313.349177 621.898037 C 307.589443 616.863513 302.32193 610.880881 299.390637 603.729651 C 298.082942 600.892678 298.141715 597.401584 300.499974 595.152585 L 300.331002 596.666617 C 306.840089 595.240781 313.510802 593.748798 319.24115 590.213606 C 327.359143 584.98799 333.816805 577.726515 340.487517 570.861923 Z M 340.487517 570.861923 " stroke="#818d9b" stroke-width="0.6" stroke-opacity="1" stroke-miterlimit="4"/><path stroke-linecap="round" transform="matrix(0.531709, 0, 0, 0.531486, -89.086998, -85.221745)" fill-opacity="1" fill="#8c8e9b" fill-rule="nonzero" stroke-linejoin="round" d="M 530.977508 612.01273 C 534.092467 606.86796 536.017276 601.157266 538.632665 595.777307 C 538.999995 603.126978 536.428685 610.160613 533.901455 616.92966 C 528.200493 630.76909 520.751041 644.329233 509.356464 654.317436 C 488.58028 675.447739 459.267346 686.663337 430.027878 688.809441 C 420.807895 689.801647 411.558525 688.927036 402.331196 688.860889 C 419.390001 702.031499 439.70335 710.329277 460.112205 716.848435 C 502.340461 729.541317 547.63225 732.121052 590.97719 723.948217 C 607.683358 721.20679 623.728333 715.598991 639.413324 709.388519 C 649.963041 705.191857 659.6679 699.231274 669.350719 693.358887 C 680.870187 686.58984 691.059922 677.821683 700.639888 668.583147 C 705.371098 664.099847 709.088478 658.587594 714.458843 654.802514 C 708.059954 668.987379 698.612226 681.702309 688.018429 693.050201 C 665.706805 716.848435 637.091798 734.428848 606.05976 744.343554 C 575.167307 754.148015 542.438204 758.322628 510.091124 755.941335 C 511.479632 752.641333 513.88197 749.57652 513.940743 745.879635 C 513.727691 741.837316 507.967957 740.352683 505.521539 743.388097 C 502.832684 747.217275 501.34867 751.759372 498.601042 755.559152 C 493.502502 762.578088 486.802402 768.869406 478.441972 771.669631 C 468.288971 775.25627 455.968722 773.631993 448.019701 766.047132 C 439.042156 757.697906 436.132902 744.733087 436.676551 732.878068 C 437.212853 729.350226 433.399967 726.336861 430.10869 727.806795 C 426.339885 729.453121 427.272903 734.259806 427.081891 737.559808 C 395.638443 725.182962 367.001397 705.80923 343.609822 681.45242 C 333.207037 670.30297 323.597684 658.433251 314.928696 645.902062 C 316.162925 643.689811 317.492659 641.536358 318.881167 639.441702 C 335.83712 652.097835 355.592127 660.682251 376.052408 665.82702 C 397.563253 670.817447 420.007115 672.603417 441.90733 669.266666 C 460.266483 666.238602 478.236267 660.050179 494.016764 650.076675 C 509.238919 640.720544 522.198321 627.586683 530.977508 612.01273 Z M 530.977508 612.01273 " stroke="#8c8e9b" stroke-width="0.6" stroke-opacity="1" stroke-miterlimit="4"/><path stroke-linecap="round" transform="matrix(0.531709, 0, 0, 0.531486, -89.086998, -85.221745)" fill-opacity="1" fill="#737f8d" fill-rule="nonzero" stroke-linejoin="round" d="M 313.349177 621.898037 C 317.999575 621.523204 321.746341 624.882004 326.139608 625.800713 C 336.586473 628.358398 347.128844 631.548155 358.009158 630.960181 C 368.602955 631.21007 378.946968 628.32165 389.548112 628.806728 C 389.481993 628.402496 389.327714 627.571983 389.246901 627.160402 C 392.31778 626.682673 395.410699 626.241693 398.481578 625.741915 C 397.063684 631.379113 396.138012 637.648382 398.892987 643.05039 C 402.867498 651.237923 411.720151 655.508082 420.117314 657.727683 C 425.370133 659.212316 430.880083 659.116771 436.199022 660.24127 C 412.660515 663.122341 388.68856 660.057529 366.178577 652.840152 C 346.680701 646.372441 328.10115 636.36219 313.349177 621.898037 Z M 313.349177 621.898037 " stroke="#737f8d" stroke-width="0.6" stroke-opacity="1" stroke-miterlimit="4"/><path stroke-linecap="round" transform="matrix(0.531709, 0, 0, 0.531486, -89.086998, -85.221745)" fill-opacity="1" fill="#858b98" fill-rule="nonzero" stroke-linejoin="round" d="M 601.071419 756.007482 C 618.637139 751.178748 635.409427 743.696783 651.300123 734.83308 C 651.278083 744.688989 647.399078 755.250466 638.627238 760.556928 C 626.982877 768.141789 611.268499 764.356708 601.071419 756.007482 Z M 601.071419 756.007482 " stroke="#858b98" stroke-width="0.6" stroke-opacity="1" stroke-miterlimit="4"/><path stroke-linecap="round" transform="matrix(0.531709, 0, 0, 0.531486, -89.086998, -85.221745)" fill-opacity="1" fill="#db5b59" fill-rule="nonzero" stroke-linejoin="round" d="M 637.341583 772.3605 C 640.750405 770.758271 644.026989 768.869406 646.972975 766.502812 C 650.249559 771.360944 653.092693 776.571861 656.861499 781.077209 C 658.250006 783.098369 660.902129 783.039571 662.900404 782.010617 C 669.372758 778.850259 675.477783 774.822639 682.383587 772.603039 C 685.909955 771.581434 690.560353 770.772971 693.197782 774.050924 C 694.277732 776.336672 691.963553 778.129991 690.369341 779.379435 C 681.832592 784.921087 672.17916 788.390132 663.282427 793.277663 C 656.868845 796.981897 651.469094 802.119317 645.848945 806.881904 C 644.137188 808.403286 641.99198 809.336694 639.707188 809.491037 C 637.95135 803.743594 642.939692 799.230896 645.981184 795.012185 C 648.030886 792.946928 648.523108 789.53668 646.943589 787.067191 C 643.799244 782.128212 640.61082 777.211282 637.341583 772.3605 Z M 637.341583 772.3605 " stroke="#db5b59" stroke-width="0.6" stroke-opacity="1" stroke-miterlimit="4"/><path stroke-linecap="round" transform="matrix(0.531709, 0, 0, 0.531486, -89.086998, -85.221745)" fill-opacity="1" fill="#db5956" fill-rule="nonzero" stroke-linejoin="round" d="M 448.952719 778.651818 C 451.568109 779.798367 454.279004 780.731775 456.901741 781.907722 C 456.512371 781.922421 455.733631 781.929771 455.336915 781.929771 C 456.027495 782.973424 456.718076 784.002378 457.430696 785.053381 C 455.917296 790.352494 452.662752 795.372319 452.88315 801.016866 C 453.147628 804.662303 456.769502 806.30128 459.957926 806.609966 C 464.983001 807.18324 469.890529 809.307295 475.011109 808.550279 C 478.361159 808.447384 481.659782 809.733576 484.51761 811.401951 C 486.236714 812.5485 488.396615 814.679905 487.118306 816.921554 C 485.472668 819.567436 481.681822 818.663426 479.448456 820.427347 C 478.508091 821.941379 478.302386 823.918441 476.943265 825.131137 C 475.047842 825.836705 472.968755 825.520669 471.110065 824.917996 C 460.839518 821.25786 452.030945 814.503512 441.723665 810.938922 C 435.530481 807.41843 427.838591 811.482798 421.476435 808.006403 C 423.827347 803.919986 428.940581 804.162525 433.003251 803.39081 C 431.29884 803.17032 429.601775 802.94983 427.912057 802.810186 C 431.629437 802.222212 435.449669 802.097268 439.100929 801.097713 C 441.973449 800.428893 442.972587 797.378779 443.846832 794.938689 C 445.60267 789.529331 447.233615 784.068525 448.952719 778.651818 Z M 448.952719 778.651818 " stroke="#db5956" stroke-width="0.6" stroke-opacity="1" stroke-miterlimit="4"/><path stroke-linecap="round" transform="matrix(0.531709, 0, 0, 0.531486, -89.086998, -85.221745)" fill-opacity="1" fill="#b45f60" fill-rule="nonzero" stroke-linejoin="round" d="M 455.336915 781.929771 C 455.733631 781.929771 456.512371 781.922421 456.901741 781.907722 C 457.68048 781.966519 459.259999 782.098814 460.038739 782.157611 C 458.562072 787.581668 456.093615 792.660291 454.433283 798.018201 C 453.478225 800.48769 454.477363 803.883238 457.298457 804.522659 C 463.447561 806.07344 469.839103 806.551169 475.936781 808.388586 L 475.011109 808.550279 C 469.890529 809.307295 464.983001 807.18324 459.957926 806.609966 C 456.769502 806.30128 453.147628 804.662303 452.88315 801.016866 C 452.662752 795.372319 455.917296 790.352494 457.430696 785.053381 C 456.718076 784.002378 456.027495 782.973424 455.336915 781.929771 Z M 455.336915 781.929771 " stroke="#b45f60" stroke-width="0.6" stroke-opacity="1" stroke-miterlimit="4"/><path stroke-linecap="round" transform="matrix(0.531709, 0, 0, 0.531486, -89.086998, -85.221745)" fill-opacity="1" fill="#ad5d5b" fill-rule="nonzero" stroke-linejoin="round" d="M 418.302704 808.160746 C 419.91161 804.427114 424.172638 803.060075 427.912057 802.810186 C 429.601775 802.94983 431.29884 803.17032 433.003251 803.39081 C 428.940581 804.162525 423.827347 803.919986 421.476435 808.006403 C 427.838591 811.482798 435.530481 807.41843 441.716318 810.938922 C 435.941891 810.733131 430.160117 810.711082 424.378342 810.461193 C 422.122936 810.461193 420.102621 809.439589 418.302704 808.160746 Z M 418.302704 808.160746 " stroke="#ad5d5b" stroke-width="0.6" stroke-opacity="1" stroke-miterlimit="4"/></svg>