<svg xmlns="http://www.w3.org/2000/svg" xmlns:xlink="http://www.w3.org/1999/xlink" width="500" zoomAndPan="magnify" viewBox="0 0 375.12 383.03998" height="500" preserveAspectRatio="xMidYMid meet" version="1.0"><defs><clipPath id="cd56e4a4d1"><path d="M 16.402344 37.40625 L 357.546875 37.40625 L 357.546875 350.121094 L 16.402344 350.121094 Z M 16.402344 37.40625 " clip-rule="nonzero"/></clipPath></defs><g clip-path="url(#cd56e4a4d1)"><path fill="#462d18" d="M 353.816406 214.066406 C 350.148438 213.308594 350.417969 211.480469 350.417969 208.902344 C 350.441406 164.367188 350.339844 119.835938 350.496094 75.3125 C 350.519531 67.507812 347.121094 61.109375 336.578125 61.199219 C 296.492188 61.535156 256.394531 61.300781 216.292969 61.378906 C 213.410156 61.390625 212.109375 61.328125 212.703125 57.65625 C 213.746094 51.308594 210.863281 48.539062 204.902344 49.273438 C 204.796875 46.992188 204.632812 44.714844 203.757812 42.613281 C 202.777344 40.285156 201.773438 37.734375 198.789062 37.464844 C 195.941406 37.21875 195.105469 39.664062 194.050781 41.648438 C 189.453125 50.316406 182.207031 55.453125 172.785156 57.824219 C 170.828125 58.3125 169.179688 58.109375 167.363281 57.308594 C 154.503906 51.667969 140.976562 48.886719 126.96875 48.859375 C 105.238281 48.847656 84.796875 53.933594 66.195312 65.449219 C 63.722656 66.96875 61.523438 67.1875 58.769531 66.441406 C 48.652344 63.722656 39.898438 58.828125 32.789062 51.089844 C 31.386719 49.554688 29.996094 48.011719 27.667969 48.785156 C 25.464844 49.503906 24.914062 51.460938 24.347656 53.472656 C 23.277344 57.320312 24.515625 61.058594 25.054688 64.894531 C 19.636719 64.136719 17.613281 66.066406 18.21875 71.078125 C 18.667969 74.8125 20.253906 78.042969 22.648438 80.914062 C 23.1875 81.546875 24.21875 81.867188 23.34375 83.324219 C 20.769531 87.585938 21.269531 90.703125 24.65625 94.488281 C 27.074219 97.207031 30.242188 98.753906 33.539062 100.039062 C 34.695312 100.492188 35.699219 100.683594 34.980469 102.332031 C 30.925781 111.503906 28.734375 121.1875 27.074219 131.011719 C 26.871094 132.277344 26.355469 132.570312 25.183594 132.777344 C 20.535156 133.601562 18.179688 136.910156 16.738281 141.046875 C 16.082031 142.898438 16.300781 144.714844 18.375 145.4375 C 20.574219 146.195312 21.117188 144.394531 21.683594 142.785156 C 22.429688 140.632812 23.238281 138.496094 26.355469 138.121094 C 25.300781 151.59375 26.535156 164.625 32.496094 176.835938 C 38.558594 189.277344 49.050781 197.066406 61.316406 203.082031 C 51.199219 212.894531 44.222656 224.164062 39.367188 236.796875 C 34.296875 250 31.605469 263.648438 31.554688 277.765625 C 31.53125 284.074219 34.089844 286.984375 40.296875 288.09375 C 42.421875 288.480469 44.59375 288.558594 47.078125 288.816406 C 45.1875 290.59375 43.667969 292.085938 42.085938 293.503906 C 39.097656 296.207031 36.023438 299.105469 37.953125 303.507812 C 39.808594 307.734375 44.183594 307.644531 48.046875 308.070312 C 48.535156 308.121094 49.101562 308.121094 49.550781 307.953125 C 54.132812 306.164062 57.6875 307.964844 61.640625 311.828125 C 55.921875 317.171875 50.273438 322.59375 44.464844 327.851562 C 40.941406 331.03125 39.535156 334.648438 39.742188 339.503906 C 40.140625 349.136719 40.796875 350.089844 50.402344 350.078125 C 143.332031 350.027344 236.273438 349.988281 329.203125 349.949219 C 340.867188 349.9375 340.683594 349.960938 341.007812 338.191406 C 341.121094 334.019531 339.847656 331.003906 336.964844 328.183594 C 331.726562 323.085938 326.628906 317.832031 321.59375 312.523438 C 319.34375 310.15625 316.820312 309.214844 313.550781 309.214844 C 270.554688 309.332031 227.546875 309.1875 184.550781 309.535156 C 174.585938 309.613281 164.867188 308.183594 154.285156 307.167969 C 157.4375 304.746094 159.5625 302.222656 160.941406 299.257812 C 162.074219 296.785156 163.863281 295.421875 166.140625 294.199219 C 180.457031 286.546875 189.839844 274.867188 193.882812 259.128906 C 194.539062 256.578125 195.644531 256.167969 197.925781 255.988281 C 216.140625 254.480469 231.148438 246.445312 243.019531 232.730469 C 245.269531 230.128906 247.265625 229.1875 250.5625 229.199219 C 283.347656 229.328125 316.136719 229.316406 348.925781 229.316406 C 350.300781 229.316406 351.71875 229.289062 353.042969 228.980469 C 356.222656 228.257812 357.574219 226.082031 357.535156 222.890625 C 357.445312 219.410156 358.308594 214.996094 353.816406 214.066406 Z M 72.800781 309.242188 C 78.078125 306.882812 81.707031 303.855469 85.3125 300.148438 C 87.320312 303.378906 88.789062 306.730469 92.703125 309.242188 Z M 108.613281 309.9375 C 111.675781 306.496094 113.941406 303.585938 118.730469 304.320312 C 121.78125 304.785156 125.039062 304.5 128.128906 304.011719 C 132.957031 303.25 137.253906 303.574219 140.988281 308.660156 C 130.277344 310.449219 119.761719 309.046875 108.613281 309.9375 Z M 108.613281 309.9375 " fill-opacity="1" fill-rule="nonzero"/></g><path fill="#5d7a5f" d="M 194.9375 196.964844 C 204.425781 191.027344 212.484375 184.34375 216.835938 174.75 C 220.800781 165.980469 226.425781 157.890625 228.40625 148.230469 C 231.742188 131.929688 228.496094 117.234375 216.410156 105.589844 C 210.992188 100.375 209.058594 93.371094 204.644531 87.78125 C 203.820312 86.75 204.128906 86.042969 205.222656 85.371094 C 208.417969 83.414062 210.925781 80.824219 212.253906 77.246094 C 213.023438 75.160156 214.773438 75.957031 216.140625 75.957031 C 238.964844 75.917969 261.789062 75.929688 284.609375 75.929688 C 300.121094 75.929688 315.632812 76.007812 331.132812 75.855469 C 334.53125 75.828125 335.78125 76.78125 335.78125 80.347656 C 335.691406 123.363281 335.742188 166.390625 335.703125 209.40625 C 335.703125 210.796875 336.539062 212.871094 334.75 213.449219 C 332.640625 214.132812 330.246094 214.003906 328.03125 213.476562 C 327.015625 213.230469 327.347656 212.007812 327.234375 211.15625 C 326.589844 206.765625 324.96875 205.363281 320.488281 205.347656 C 312.042969 205.335938 303.585938 205.335938 295.140625 205.375 C 290.945312 205.398438 288.691406 207.511719 289.039062 211.59375 C 289.207031 213.515625 288.613281 213.734375 287.109375 213.734375 C 276.515625 213.707031 265.917969 213.695312 255.335938 213.71875 C 253.277344 213.71875 253.175781 212.882812 253.601562 211.105469 C 254.230469 208.425781 254.757812 205.734375 254.746094 202.914062 C 254.734375 199.667969 253.753906 196.886719 251.320312 194.867188 C 249.480469 193.332031 249.429688 192.121094 250.652344 190.152344 C 260.472656 174.3125 270.207031 158.417969 279.914062 142.515625 C 281.226562 140.363281 282.230469 138.046875 283.402344 135.816406 C 284.648438 133.460938 284.328125 131.359375 282.164062 129.828125 C 279.757812 128.117188 277.699219 129.402344 276.28125 131.308594 C 272.664062 136.152344 269.164062 141.070312 265.816406 146.09375 C 257.835938 158.019531 249.929688 169.996094 242.066406 182.011719 C 240.496094 184.40625 238.988281 186.148438 235.695312 186.222656 C 230.390625 186.339844 226.027344 189.574219 221.261719 191.492188 C 213.050781 194.738281 204.824219 197.777344 194.9375 196.964844 Z M 194.9375 196.964844 " fill-opacity="1" fill-rule="nonzero"/><path fill="#fbe9bd" d="M 107.105469 210.875 C 108.972656 208.621094 107.957031 207.472656 105.546875 207.074219 C 104.066406 206.828125 102.550781 206.894531 101.042969 206.816406 C 86.394531 205.644531 74.085938 199.398438 63.632812 189.300781 C 57.339844 183.222656 53.683594 175.445312 50.335938 167.535156 C 49.835938 166.363281 48.804688 164.714844 50.96875 163.828125 C 64.214844 196.191406 104.917969 202.65625 126.414062 175.792969 C 129.570312 171.851562 131.617188 167.28125 133.960938 162.207031 C 135.054688 167.679688 137.035156 172.03125 140.628906 175.546875 C 145.726562 180.53125 149.535156 180.121094 153.179688 174.09375 C 153.566406 173.449219 153.746094 173.113281 154.492188 173.511719 C 158.636719 175.726562 159.808594 172.636719 160.992188 169.777344 C 161.660156 168.15625 162.074219 166.441406 162.664062 164.550781 C 165.097656 167.28125 167.453125 170.007812 170.351562 172.210938 C 180.625 180.054688 191.796875 182.230469 204.089844 177.839844 C 204.785156 177.59375 205.53125 177.480469 206.253906 177.3125 C 206.035156 181.253906 202.878906 183.25 200.539062 185.695312 C 197.511719 188.863281 194.023438 191.542969 190.34375 193.949219 C 185.65625 197.003906 180.417969 198.769531 175.125 200.390625 C 173.582031 200.867188 171.546875 201.242188 172.128906 203.457031 C 172.730469 205.785156 174.777344 204.71875 176.273438 204.511719 C 177.378906 204.355469 178.5 204.023438 179.515625 203.558594 C 180.804688 202.964844 181.613281 203.160156 182.234375 204.484375 C 191.863281 224.949219 196.058594 245.839844 186.210938 267.421875 C 179.503906 282.128906 167.121094 290.5 152.25 295.371094 C 140.304688 299.285156 127.910156 300.574219 115.359375 299.96875 C 112.988281 299.851562 111.457031 300.378906 109.9375 302.335938 C 103.695312 310.386719 94.554688 309.074219 90.472656 299.582031 C 89.496094 297.300781 88.105469 296.144531 85.777344 295.28125 C 78.835938 292.742188 72.234375 289.496094 66.492188 283.960938 C 75.839844 280.082031 83.675781 274.816406 90.023438 267.460938 C 100.195312 255.652344 104.390625 242 102.5625 226.507812 C 102.394531 225.128906 102.203125 223.753906 101.054688 222.761719 C 97.875 219.992188 97.800781 215.652344 95.789062 212.265625 C 95.121094 211.144531 96.628906 211.105469 97.453125 211.078125 C 100.644531 210.9375 103.886719 211.273438 107.105469 210.875 Z M 107.105469 210.875 " fill-opacity="1" fill-rule="nonzero"/><path fill="#d19f6e" d="M 146.316406 132.828125 C 144.851562 132.996094 143.394531 133.175781 141.925781 133.34375 C 138.902344 125.605469 136.1875 117.785156 130.972656 111.050781 C 118.164062 94.488281 97.308594 88.28125 77.871094 95.996094 C 66.621094 100.476562 59.167969 109.003906 54.789062 120.195312 C 53.386719 123.777344 51.121094 127.074219 50.953125 131.089844 C 48.816406 138.972656 48.816406 138.972656 41.09375 136.371094 C 40.027344 136.011719 38.96875 135.574219 37.902344 135.210938 C 30.964844 132.90625 30.9375 132.90625 32.339844 125.863281 C 33.820312 118.445312 35.96875 111.230469 38.699219 104.175781 C 39.34375 102.511719 39.921875 101.277344 42.019531 101.316406 C 43.089844 101.328125 44.414062 100.953125 44.375 99.421875 C 44.339844 97.8125 43.039062 97.902344 41.90625 97.773438 C 37.476562 97.269531 33.214844 96.191406 29.625 93.382812 C 28.542969 92.546875 27.617188 91.476562 26.78125 90.382812 C 25.902344 89.234375 25.414062 87.765625 26.226562 86.503906 C 27.164062 85.050781 28.492188 86.234375 29.636719 86.480469 C 31.722656 86.917969 34.632812 88.914062 35.648438 86.390625 C 36.742188 83.683594 33.0625 83.722656 31.402344 82.746094 C 26.84375 80.066406 23.535156 76.5 22.273438 71.269531 C 22.066406 70.417969 21.847656 69.3125 22.582031 68.757812 C 23.417969 68.128906 24.203125 69.054688 24.898438 69.519531 C 27.5 71.296875 30.023438 73.175781 32.648438 74.902344 C 33.976562 75.765625 35.714844 77.039062 36.960938 75.210938 C 38.003906 73.691406 36.125 72.828125 35.183594 71.953125 C 29.882812 66.980469 27.191406 61.121094 28.503906 53.804688 C 29.417969 53.316406 29.765625 53.894531 30.179688 54.359375 C 39.550781 64.777344 51.609375 69.941406 65.167969 71.992188 C 67.097656 72.285156 70.832031 73.753906 69.75 68.847656 C 69.515625 67.78125 70.832031 67.585938 71.550781 67.199219 C 91.917969 56.175781 113.582031 51.488281 136.6875 53.742188 C 151.867188 55.222656 165.859375 60.078125 178.769531 68.140625 C 180.03125 68.925781 181.628906 70.070312 182.773438 68.398438 C 184.097656 66.441406 182.027344 65.589844 180.84375 64.636719 C 179.414062 63.476562 177.390625 63.167969 176.015625 61.222656 C 186.210938 58.121094 193.855469 52.066406 198.695312 42.0625 C 201.683594 46.917969 200.640625 51.320312 199.765625 55.699219 C 199.546875 56.792969 199.019531 57.835938 198.683594 58.917969 C 198.425781 59.742188 198.015625 60.695312 199.007812 61.289062 C 200.0625 61.917969 201 61.390625 201.65625 60.542969 C 203.097656 58.648438 204.398438 56.640625 205.867188 54.773438 C 206.355469 54.140625 206.960938 53.148438 208.003906 53.675781 C 208.789062 54.078125 208.492188 55.015625 208.507812 55.738281 C 208.597656 60.863281 207.128906 65.398438 203.523438 69.171875 C 202.636719 70.109375 201 71.050781 202.070312 72.609375 C 203.226562 74.269531 204.761719 73.136719 206.152344 72.621094 C 207 72.3125 207.757812 71.023438 208.777344 72.042969 C 209.675781 72.945312 208.816406 73.949219 208.542969 74.863281 C 207.835938 77.207031 206.574219 79.226562 204.671875 80.773438 C 202.738281 82.332031 200.820312 83.941406 199.007812 80.492188 C 198.453125 79.433594 197.292969 78.339844 195.890625 79.394531 C 194.320312 80.582031 195.335938 81.804688 196.109375 83 C 197.859375 85.746094 200.304688 88.023438 201.515625 91.128906 C 200.011719 91.992188 198.878906 90.960938 197.691406 90.34375 C 182.503906 82.371094 166.21875 86.609375 156.925781 101.070312 C 151.957031 108.8125 148.890625 117.246094 148.144531 126.492188 C 147.964844 128.683594 148.054688 131.039062 146.316406 132.828125 Z M 146.316406 132.828125 " fill-opacity="1" fill-rule="nonzero"/><path fill="#d6a471" d="M 45.046875 332.78125 C 51.625 325.96875 57.429688 319.929688 63.273438 313.929688 C 63.90625 313.285156 64.78125 313.050781 65.707031 313.050781 C 72.980469 313.050781 80.242188 313.050781 88.183594 313.050781 C 86.316406 314.664062 84.796875 315.707031 83.625 317.042969 C 80.753906 320.304688 82.171875 324.152344 86.457031 324.875 C 87.679688 325.082031 89.019531 325.171875 90.230469 324.925781 C 96.320312 323.664062 101.570312 325.699219 106.746094 328.636719 C 111.945312 331.570312 113.839844 331.171875 118.074219 327.011719 C 118.574219 326.511719 119.140625 326.460938 119.773438 326.367188 C 122.308594 326.019531 124.421875 325.003906 125.078125 322.273438 C 125.757812 319.453125 124.277344 317.429688 122.375 315.628906 C 121.742188 315.035156 121.058594 314.519531 119.800781 313.476562 C 124.34375 313.476562 128.230469 313.476562 132.09375 313.476562 C 130.289062 319.761719 131.835938 321.847656 138.464844 321.332031 C 144.527344 320.855469 150.179688 321.796875 155.675781 324.488281 C 161.699219 327.4375 163.050781 327.0625 167.597656 322.828125 C 167.929688 322.503906 168.394531 322.273438 168.832031 322.117188 C 174.289062 320.148438 174.933594 318.964844 173.285156 313.542969 C 174.328125 312.589844 175.640625 313.066406 176.800781 313.066406 C 222.320312 312.988281 267.824219 312.949219 313.34375 312.898438 C 314.992188 312.898438 316.675781 312.71875 317.964844 314.03125 C 323.578125 319.761719 329.175781 325.507812 334.660156 331.777344 C 238.410156 332.707031 142.261719 332.898438 45.046875 332.78125 Z M 45.046875 332.78125 " fill-opacity="1" fill-rule="nonzero"/><path fill="#fbe9bc" d="M 53.128906 147.292969 C 53.207031 125.398438 70.417969 107.496094 91.296875 107.5625 C 113.773438 107.640625 131.035156 125.011719 130.894531 147.371094 C 130.742188 169.894531 113.800781 187.410156 92.226562 187.332031 C 70.300781 187.253906 53.054688 169.570312 53.128906 147.292969 Z M 53.128906 147.292969 " fill-opacity="1" fill-rule="nonzero"/><path fill="#cf9c6d" d="M 107.105469 210.875 C 103.65625 212.367188 100.011719 210.886719 96.152344 211.621094 C 98.804688 214.96875 99.433594 219.050781 101.03125 222.746094 C 98.878906 222.515625 97.914062 223.46875 98.261719 225.605469 C 102.679688 252.457031 83.214844 276.414062 56.066406 282.671875 C 51.609375 283.703125 47.171875 284.332031 42.601562 284.113281 C 37.464844 283.871094 35.558594 282.386719 35.570312 277.277344 C 35.585938 272.253906 36.394531 267.242188 36.847656 262.234375 C 36.976562 260.765625 37.644531 260.84375 38.867188 261.214844 C 41.632812 262.054688 44.363281 261.667969 47.015625 259.941406 C 47.828125 264.382812 49.164062 268.3125 54.316406 268.828125 C 58.679688 269.265625 66.171875 264.949219 67.921875 261.203125 C 68.347656 260.289062 68.460938 259.515625 67.703125 258.808594 C 66.851562 258.007812 66.042969 258.472656 65.359375 259.078125 C 63.378906 260.828125 61.664062 262.902344 59.207031 264.050781 C 57.261719 264.949219 55.242188 265.941406 53.144531 264.488281 C 50.953125 262.96875 50.980469 260.664062 51.148438 258.355469 C 51.199219 257.738281 51.496094 257.144531 51.597656 256.527344 C 51.804688 255.265625 52.9375 253.8125 51.109375 252.859375 C 49.527344 252.035156 48.871094 253.464844 48.046875 254.3125 C 46.898438 255.511719 45.652344 256.566406 44.121094 257.210938 C 40.539062 258.71875 38.289062 257.09375 38.984375 253.296875 C 40.140625 246.984375 41.996094 240.855469 44.6875 234.429688 C 45.894531 238.574219 46.398438 242.863281 50.671875 244.433594 C 54.882812 245.980469 58.550781 244.125 61.933594 241.832031 C 62.796875 242.285156 62.796875 243.109375 62.992188 243.792969 C 65.039062 250.796875 70.753906 253.140625 77.113281 249.535156 C 80.371094 247.679688 82.800781 244.988281 84.578125 241.691406 C 85.15625 240.597656 85.46875 239.503906 84.257812 238.691406 C 82.929688 237.789062 82.195312 238.859375 81.464844 239.734375 C 80.085938 241.371094 78.863281 243.148438 77.332031 244.628906 C 75.117188 246.765625 72.296875 247.9375 69.375 246.675781 C 66.351562 245.375 66.375 242.285156 66.429688 239.476562 C 66.453125 238.355469 66.789062 237.234375 66.890625 236.117188 C 66.980469 235.136719 67.25 234.015625 66.066406 233.460938 C 64.742188 232.832031 63.917969 233.644531 63.25 234.632812 C 61.613281 237.105469 59.605469 239.117188 56.835938 240.3125 C 52.871094 242.027344 49.988281 240.816406 49.152344 236.617188 C 48.1875 231.710938 48.664062 226.804688 51.160156 222.359375 C 54.40625 216.617188 58.664062 211.644531 63.285156 206.945312 C 64.792969 205.414062 66.273438 204.921875 68.347656 205.632812 C 80.949219 209.945312 93.925781 211.167969 107.105469 210.875 Z M 107.105469 210.875 " fill-opacity="1" fill-rule="nonzero"/><path fill="#bd8758" d="M 158.1875 336.144531 C 193.496094 336.144531 228.808594 336.414062 264.117188 336.039062 C 287.183594 335.796875 310.265625 335.859375 333.335938 335.460938 C 336.527344 335.410156 337.402344 336.285156 337.273438 339.441406 C 336.953125 347.347656 338.058594 346.292969 330.398438 346.292969 C 260.539062 346.316406 190.664062 346.164062 120.804688 346.472656 C 96.71875 346.574219 72.644531 346.535156 48.558594 346.730469 C 46.875 346.742188 44.648438 347.324219 43.976562 345.121094 C 43.179688 342.46875 43.128906 339.570312 43.875 336.917969 C 44.222656 335.679688 46.140625 336.3125 47.351562 336.3125 C 79.636719 336.296875 111.921875 336.296875 144.207031 336.3125 C 148.867188 336.3125 153.539062 336.3125 158.199219 336.3125 C 158.1875 336.273438 158.1875 336.207031 158.1875 336.144531 Z M 158.1875 336.144531 " fill-opacity="1" fill-rule="nonzero"/><path fill="#fbe9bd" d="M 212.199219 166.558594 C 203.601562 175.355469 190.675781 177.53125 179.492188 172.070312 C 154.132812 159.667969 151.183594 120.15625 174.429688 104.175781 C 184.035156 97.566406 197.035156 97.453125 206.859375 103.800781 C 208.183594 104.664062 209.148438 105.628906 209.742188 107.125 C 212.703125 114.644531 214.878906 122.371094 216.152344 130.355469 C 217.066406 140.671875 218.339844 151.015625 214.699219 161.125 C 213.988281 163.015625 213.4375 164.9375 212.199219 166.558594 Z M 212.199219 166.558594 " fill-opacity="1" fill-rule="nonzero"/><path fill="#d2a171" d="M 346.953125 141.832031 C 346.953125 164.535156 346.902344 187.226562 347.019531 209.933594 C 347.03125 212.84375 346.386719 213.796875 343.3125 213.757812 C 340.285156 213.71875 339.28125 213.089844 339.28125 209.832031 C 339.347656 167.832031 339.269531 125.835938 339.203125 83.851562 C 339.203125 81.957031 339.269531 80.050781 339 78.199219 C 338.507812 74.757812 336.539062 72.777344 332.898438 72.761719 C 329.371094 72.75 325.84375 72.699219 322.300781 72.699219 C 287.507812 72.6875 252.722656 72.671875 217.929688 72.632812 C 216.449219 72.632812 214.375 73.34375 213.628906 72.082031 C 212.625 70.394531 211.710938 68.667969 210.566406 67.03125 C 210.050781 66.296875 210.902344 64.84375 212.34375 64.714844 C 213.089844 64.648438 213.847656 64.6875 214.609375 64.6875 C 255.066406 64.703125 295.539062 64.703125 336 64.726562 C 344.90625 64.726562 346.953125 66.839844 346.941406 75.636719 C 346.953125 97.683594 346.953125 119.757812 346.953125 141.832031 Z M 346.953125 141.832031 " fill-opacity="1" fill-rule="nonzero"/><path fill="#d1a06f" d="M 236.132812 190.214844 C 235.269531 192.84375 233.722656 194.246094 231.40625 195.097656 C 228.808594 196.050781 226.347656 197.375 224.53125 199.605469 C 223.195312 201.253906 222.304688 203.238281 223.078125 205.21875 C 224.09375 207.859375 223.167969 209.664062 221.726562 211.761719 C 218.097656 217.054688 214.660156 222.488281 211.234375 227.925781 C 208.878906 231.660156 209.496094 234.210938 213.074219 236.539062 C 216.949219 239.050781 219.460938 238.5625 221.945312 234.777344 C 222.769531 233.515625 223.644531 232.265625 224.351562 230.9375 C 225.949219 227.925781 227.429688 225.078125 231.007812 229.136719 C 231.765625 230 233.183594 230.769531 234.289062 229.355469 C 235.5 227.78125 233.917969 227.074219 233.054688 226.367188 C 230.261719 224.074219 228.691406 221.164062 228.40625 217.609375 C 228.242188 215.535156 228.78125 214.105469 231.421875 215.125 C 232.679688 215.613281 234.097656 215.753906 235.460938 215.921875 C 236.503906 216.050781 237.574219 215.871094 237.855469 214.632812 C 238.152344 213.320312 237.085938 212.84375 236.144531 212.523438 C 233.234375 211.515625 230.597656 210.125 228.484375 207.847656 C 225.859375 205 226.039062 202.796875 229.269531 200.738281 C 233.722656 197.878906 238.691406 196.566406 243.933594 196.460938 C 249.09375 196.359375 251.128906 198.960938 250.5625 204.136719 C 248.632812 222 239.003906 234.609375 223.851562 243.445312 C 215.921875 248.066406 207.398438 250.875 198.246094 251.90625 C 195.929688 252.164062 195.375 251.582031 195.570312 249.378906 C 196.921875 233.410156 193.714844 218.316406 186.558594 204.046875 C 185.296875 201.523438 186.160156 200.867188 188.617188 201.164062 C 202.09375 202.8125 214.554688 199.464844 226.542969 193.589844 C 229.539062 192.109375 232.488281 190.371094 236.132812 190.214844 Z M 236.132812 190.214844 " fill-opacity="1" fill-rule="nonzero"/><path fill="#d09e6e" d="M 50.953125 163.839844 C 49.601562 165.386719 50.953125 166.75 51.445312 167.988281 C 59.269531 188.167969 74.152344 200.183594 94.890625 205.425781 C 96.9375 205.941406 99.136719 205.710938 101.03125 206.828125 C 80.332031 206.058594 60.777344 201.910156 45.214844 186.878906 C 35.789062 177.777344 31.632812 166.199219 30.730469 153.359375 C 30.460938 149.46875 30.691406 145.539062 30.523438 141.652344 C 30.398438 138.664062 31.59375 138.109375 34.078125 139.332031 C 34.296875 139.4375 34.566406 139.449219 34.800781 139.539062 C 38.738281 140.828125 43.191406 141.367188 46.488281 143.609375 C 50.195312 146.121094 47.09375 151.078125 48.46875 154.789062 C 49.550781 157.710938 50.144531 160.816406 50.953125 163.839844 Z M 50.953125 163.839844 " fill-opacity="1" fill-rule="nonzero"/><path fill="#fbe9bc" d="M 50.953125 131.089844 C 50.386719 130.652344 50.246094 130.007812 50.425781 129.402344 C 54.417969 115.558594 60.828125 103.425781 74.292969 96.523438 C 95.855469 85.476562 122.398438 93.871094 135.324219 115.636719 C 138.296875 120.644531 140.320312 126.042969 142.121094 131.542969 C 142.339844 132.210938 142.25 132.765625 141.925781 133.332031 C 139.585938 134.128906 136.90625 135.984375 135 135.378906 C 133.585938 134.929688 133.300781 131.246094 132.296875 129.105469 C 123.890625 111.21875 109.746094 101.765625 90.011719 102.566406 C 71.074219 103.335938 58.214844 113.679688 50.953125 131.089844 Z M 50.953125 131.089844 " fill-opacity="1" fill-rule="nonzero"/><path fill="#d6a673" d="M 300.445312 225.785156 C 284.316406 225.785156 268.171875 225.75 252.042969 225.824219 C 249.402344 225.839844 248.308594 225.980469 249.53125 222.527344 C 251.128906 217.996094 253.625 217.105469 258.117188 217.144531 C 288.371094 217.363281 318.621094 217.25 348.871094 217.234375 C 353.710938 217.234375 355.027344 219 353.867188 223.738281 C 353.3125 226.007812 351.601562 225.75 349.980469 225.75 C 338.882812 225.761719 327.800781 225.761719 316.703125 225.761719 C 311.285156 225.761719 305.863281 225.761719 300.445312 225.761719 C 300.445312 225.773438 300.445312 225.785156 300.445312 225.785156 Z M 300.445312 225.785156 " fill-opacity="1" fill-rule="nonzero"/><path fill="#fbe8bc" d="M 146.316406 132.828125 C 147.320312 120.660156 149.820312 109.003906 157.167969 98.84375 C 165.613281 87.175781 182.992188 79.769531 198.8125 89.867188 C 199.648438 90.394531 200.613281 90.703125 201.527344 91.117188 C 202.597656 92.789062 203.652344 94.476562 205.121094 96.769531 C 200.808594 95.496094 197.191406 94.285156 193.367188 94.078125 C 178.0625 93.277344 164.648438 101.597656 157.839844 116.085938 C 155.574219 120.917969 154.132812 125.976562 153.617188 131.257812 C 153.410156 133.371094 153.125 134.554688 150.65625 133.511719 C 149.289062 132.945312 147.617188 134.015625 146.316406 132.828125 Z M 146.316406 132.828125 " fill-opacity="1" fill-rule="nonzero"/><path fill="#b17d54" d="M 81.167969 297.984375 C 74.757812 305.503906 66.132812 308.324219 59.617188 305.042969 C 61.457031 303.597656 63.195312 302.3125 64.84375 300.90625 C 66.054688 299.890625 67.175781 298.523438 65.808594 297.058594 C 64.304688 295.421875 63.429688 297.367188 62.464844 298.113281 C 57.738281 301.746094 52.601562 304.140625 46.476562 303.765625 C 44.648438 303.652344 42.703125 303.316406 41.890625 301.640625 C 41.003906 299.8125 42.859375 298.707031 43.964844 297.625 C 47.105469 294.53125 50.09375 291.289062 53.632812 288.621094 C 58.28125 285.132812 60.828125 285.171875 65.347656 288.777344 C 70.082031 292.5625 75.15625 295.808594 81.167969 297.984375 Z M 81.167969 297.984375 " fill-opacity="1" fill-rule="nonzero"/><path fill="#d7aa7a" d="M 279.796875 132.636719 C 280.582031 135.070312 279.4375 136.640625 278.496094 138.210938 C 267.992188 155.558594 257.359375 172.832031 246.957031 190.242188 C 244.871094 193.746094 242 192.058594 238.707031 192.703125 C 252.542969 172.238281 265.148438 151.722656 279.796875 132.636719 Z M 279.796875 132.636719 " fill-opacity="1" fill-rule="nonzero"/><path fill="#f9cb69" d="M 158.597656 161.960938 C 158.597656 162.464844 158.625 162.964844 158.597656 163.46875 C 158.289062 169.753906 157.3125 170.410156 151.699219 168.050781 C 148.121094 166.546875 144.347656 165.488281 140.988281 163.441406 C 138.15625 161.714844 137.421875 159.527344 138.8125 156.4375 C 140.886719 151.800781 145.222656 149.3125 150.074219 150.214844 C 155.226562 151.195312 158.609375 155.84375 158.597656 161.960938 Z M 158.597656 161.960938 " fill-opacity="1" fill-rule="nonzero"/><path fill="#f5cb6f" d="M 121.433594 320.871094 C 121.304688 321.695312 120.777344 322.246094 120.054688 322.542969 C 119.128906 322.917969 118.332031 322.558594 117.6875 321.835938 C 116.257812 320.238281 114.792969 318.65625 112.859375 317.648438 C 111.742188 317.070312 110.570312 316.605469 109.257812 316.621094 C 108.304688 316.621094 107.453125 316.8125 107.144531 317.816406 C 106.808594 318.886719 107.519531 319.351562 108.367188 319.8125 C 110.015625 320.714844 111.636719 321.695312 113.195312 322.75 C 114.121094 323.382812 115.140625 324.179688 114.367188 325.53125 C 113.671875 326.742188 112.460938 326.679688 111.339844 326.367188 C 110.390625 326.097656 109.449219 325.660156 108.574219 325.171875 C 102.714844 321.953125 96.667969 319.773438 89.792969 321.128906 C 88.75 321.332031 86.933594 321.976562 86.523438 320.355469 C 86.1875 319.039062 87.679688 318.179688 88.738281 317.597656 C 90.035156 316.878906 91.492188 316.402344 92.933594 315.988281 C 94.054688 315.679688 95.546875 315.460938 95.699219 314.339844 C 96.265625 310.179688 99.332031 311.726562 101.621094 311.53125 C 102.058594 311.492188 102.910156 311.789062 102.933594 311.996094 C 103.347656 316.878906 107.082031 315.035156 109.566406 315.085938 C 113.234375 315.164062 116.527344 316.027344 119.476562 318.179688 C 120.402344 318.835938 121.242188 319.644531 121.433594 320.871094 Z M 121.433594 320.871094 " fill-opacity="1" fill-rule="nonzero"/><path fill="#f6cf70" d="M 170.273438 316.515625 C 170.390625 317.289062 170.082031 317.855469 169.4375 318.050781 C 168.1875 318.421875 166.992188 318.410156 165.960938 317.355469 C 164.289062 315.628906 162.472656 314.070312 160.078125 313.425781 C 158.753906 313.066406 157.15625 312.421875 156.5 314.1875 C 155.867188 315.871094 157.582031 316.066406 158.597656 316.710938 C 160.617188 317.972656 164.597656 318.835938 163.464844 321.410156 C 162.164062 324.371094 158.957031 321.769531 156.964844 320.792969 C 151.003906 317.855469 144.796875 316.980469 138.273438 317.546875 C 137.359375 317.625 135.980469 318.101562 135.59375 316.953125 C 135.167969 315.730469 136.378906 314.882812 137.304688 314.339844 C 138.476562 313.671875 139.84375 313.324219 141.117188 312.820312 C 142.03125 312.460938 143.71875 312.097656 143.730469 311.675781 C 143.949219 307.5 147.21875 309.292969 149.226562 308.699219 C 149.792969 308.53125 150.734375 308.222656 150.835938 308.996094 C 151.324219 313.078125 154.414062 311.621094 156.667969 311.777344 C 160.269531 312.035156 163.980469 311.378906 167.363281 313.308594 C 168.691406 314.082031 169.796875 315.035156 170.273438 316.515625 Z M 170.273438 316.515625 " fill-opacity="1" fill-rule="nonzero"/><path fill="#faf6f1" d="M 308.039062 213.640625 C 303.765625 213.640625 299.480469 213.589844 295.207031 213.667969 C 293.390625 213.707031 292.347656 213.332031 292.410156 211.207031 C 292.464844 209.25 293.289062 208.566406 295.179688 208.566406 C 303.726562 208.605469 312.289062 208.59375 320.835938 208.554688 C 322.984375 208.542969 323.65625 209.597656 323.65625 211.609375 C 323.65625 213.746094 322.289062 213.617188 320.847656 213.617188 C 316.574219 213.605469 312.300781 213.617188 308.015625 213.617188 C 308.039062 213.617188 308.039062 213.628906 308.039062 213.640625 Z M 308.039062 213.640625 " fill-opacity="1" fill-rule="nonzero"/><path fill="#f8e7b9" d="M 154.59375 147.703125 C 147.539062 144.832031 141.578125 145.992188 136.480469 151.710938 C 135.542969 141.148438 136.777344 139.023438 144.078125 138.058594 C 150.914062 137.15625 152.894531 138.894531 154.59375 147.703125 Z M 154.59375 147.703125 " fill-opacity="1" fill-rule="nonzero"/><path fill="#d6a878" d="M 225.394531 212.328125 C 224.429688 215.394531 224.121094 218.164062 225.023438 221.074219 C 225.394531 222.285156 225.304688 223.457031 224.507812 224.652344 C 222.691406 227.371094 221.042969 230.203125 219.371094 233.011719 C 218.148438 235.046875 216.539062 234.777344 214.839844 233.808594 C 213.011719 232.765625 212.972656 231.261719 214.027344 229.652344 C 217.800781 223.867188 221.609375 218.097656 225.394531 212.328125 Z M 225.394531 212.328125 " fill-opacity="1" fill-rule="nonzero"/><path fill="#69725a" d="M 217.3125 114.363281 C 224.867188 125.140625 225.757812 136.9375 222.71875 149.367188 C 222.847656 137.386719 220.117188 125.863281 217.3125 114.363281 Z M 217.3125 114.363281 " fill-opacity="1" fill-rule="nonzero"/><path fill="#c8a47b" d="M 212.199219 166.558594 C 213.242188 162.347656 214.441406 158.160156 215.289062 153.898438 C 216.835938 146.121094 215.933594 138.210938 216.152344 130.371094 C 218.546875 140.105469 218.882812 149.945312 217.246094 159.824219 C 216.730469 162.773438 214.648438 164.882812 212.199219 166.558594 Z M 212.199219 166.558594 " fill-opacity="1" fill-rule="nonzero"/><path fill="#caa57e" d="M 190.328125 193.964844 C 194.21875 189.597656 199.328125 186.496094 202.933594 181.820312 C 204.066406 180.351562 205.132812 178.820312 206.242188 177.3125 C 208.105469 176.089844 209.972656 174.851562 211.839844 173.628906 C 207.257812 183.210938 199.90625 189.765625 190.328125 193.964844 Z M 190.328125 193.964844 " fill-opacity="1" fill-rule="nonzero"/><path fill="#e59c89" d="M 139.070312 166.765625 C 142.710938 168.324219 145.417969 169.496094 148.132812 170.628906 C 150.179688 171.492188 149.546875 172.957031 148.941406 174.363281 C 148.210938 176.074219 146.933594 175.546875 145.839844 174.902344 C 142.996094 173.191406 140.988281 170.742188 139.070312 166.765625 Z M 139.070312 166.765625 " fill-opacity="1" fill-rule="nonzero"/><path fill="#efd3ad" d="M 141.117188 302.402344 C 146.292969 301.617188 151.195312 300.394531 156.214844 298.667969 C 153.203125 304.824219 146.328125 306.484375 141.117188 302.402344 Z M 141.117188 302.402344 " fill-opacity="1" fill-rule="nonzero"/><path fill="#c0976a" d="M 144.578125 231.363281 C 138.992188 238.394531 133.457031 239.707031 127.316406 235.472656 C 124.613281 233.605469 122.773438 231.132812 122.902344 227.628906 C 122.953125 226.328125 122.4375 224.578125 124.472656 224.359375 C 126.363281 224.152344 126.492188 225.671875 126.800781 227.101562 C 127.730469 231.335938 130.457031 233.589844 134.382812 233.515625 C 137.808594 233.449219 140.523438 231.027344 141.617188 226.972656 C 142.03125 225.4375 141.835938 223.390625 143.960938 223.171875 C 145.855469 222.980469 146.238281 224.871094 146.910156 226.160156 C 148.542969 229.316406 150.449219 232.148438 154.554688 231.75 C 157.734375 231.441406 160.179688 228.234375 160.835938 223.84375 C 161.042969 222.488281 161.402344 221.214844 162.78125 220.917969 C 164.300781 220.597656 164.878906 221.988281 165.484375 223.082031 C 166.335938 224.652344 167.234375 226.121094 169 226.882812 C 171.910156 228.132812 174.726562 226.664062 175.230469 223.558594 C 175.332031 222.941406 175.292969 222.308594 175.308594 221.679688 C 175.320312 220.273438 175.203125 218.585938 177.03125 218.40625 C 179.078125 218.203125 179.515625 220.121094 179.542969 221.523438 C 179.605469 224.925781 178.550781 228.078125 175.578125 230.023438 C 172.859375 231.800781 169.65625 231.929688 166.992188 230.242188 C 164.609375 228.734375 163.8125 228.570312 162.242188 231.375 C 159.304688 236.617188 151.96875 237.417969 147.0625 233.566406 C 146.203125 232.871094 145.417969 232.097656 144.578125 231.363281 Z M 144.578125 231.363281 " fill-opacity="1" fill-rule="nonzero"/><path fill="#c29a6d" d="M 164.171875 253.941406 C 159.820312 250.308594 156.652344 253.835938 152.726562 256.925781 C 148.761719 260.058594 143.460938 258.898438 139.816406 254.917969 C 138.335938 253.308594 137.667969 253.257812 136.097656 254.777344 C 130.625 260.042969 122.425781 257.558594 120.507812 250.230469 C 120.148438 248.839844 120.210938 247.65625 121.613281 247.074219 C 123.003906 246.507812 123.671875 247.539062 124.164062 248.648438 C 125.257812 251.15625 126.609375 253.667969 129.710938 253.566406 C 132.96875 253.464844 134.847656 251.273438 135.710938 248.183594 C 136.042969 247.011719 136.816406 246.210938 138.144531 246.199219 C 139.546875 246.171875 139.996094 247.164062 140.472656 248.261719 C 142.042969 251.878906 144.375 254.507812 148.789062 253.914062 C 152.945312 253.347656 154.53125 250.257812 155.429688 246.675781 C 155.714844 245.570312 155.664062 244.398438 157.089844 244.035156 C 158.753906 243.636719 159.253906 244.859375 159.9375 245.929688 C 161.300781 248.078125 162.691406 250.5 165.703125 249.945312 C 168.574219 249.417969 169.515625 246.984375 169.9375 244.359375 C 170.121094 243.210938 170.761719 242.464844 171.945312 242.527344 C 173.441406 242.621094 173.621094 243.753906 173.699219 244.964844 C 174.03125 249.703125 169.964844 253.992188 164.171875 253.941406 Z M 164.171875 253.941406 " fill-opacity="1" fill-rule="nonzero"/><path fill="#48311a" d="M 85.917969 145.746094 C 85.980469 135.339844 94.054688 126.726562 103.605469 126.878906 C 113.773438 127.035156 121.613281 135.792969 121.511719 146.867188 C 121.40625 157.234375 113.710938 165.269531 103.914062 165.21875 C 93.988281 165.179688 85.851562 156.371094 85.917969 145.746094 Z M 85.917969 145.746094 " fill-opacity="1" fill-rule="nonzero"/><path fill="#f9c1ad" d="M 85.800781 162.191406 C 87.925781 162.078125 90.5 162.257812 92.921875 163.570312 C 95.753906 165.117188 97.863281 167.253906 97.710938 170.578125 C 97.554688 173.875 95.210938 176.230469 92.417969 177.363281 C 86.742188 179.667969 80.988281 179.964844 75.65625 176.035156 C 71.679688 173.113281 71.527344 168 75.375 164.882812 C 78.027344 162.773438 80.175781 162.179688 85.800781 162.191406 Z M 85.800781 162.191406 " fill-opacity="1" fill-rule="nonzero"/><path fill="#49321b" d="M 168.472656 137.078125 C 168.328125 134.644531 168.832031 132.429688 169.527344 130.277344 C 171.765625 123.375 177.484375 118.648438 183.660156 118.519531 C 190.058594 118.378906 196.265625 123.144531 198.710938 130.214844 C 200.230469 134.605469 200.332031 139.101562 199.019531 143.558594 C 196.84375 150.988281 191.257812 155.597656 184.5 155.648438 C 177.558594 155.703125 171.457031 150.792969 169.320312 143.246094 C 168.742188 141.226562 168.214844 139.125 168.472656 137.078125 Z M 168.472656 137.078125 " fill-opacity="1" fill-rule="nonzero"/><path fill="#f8baa7" d="M 201.542969 164.445312 C 195.09375 164.472656 190.984375 160.414062 192.828125 155.894531 C 194.332031 152.1875 201.335938 148.632812 205.480469 149.46875 C 209.972656 150.382812 213.191406 153.394531 213.023438 156.539062 C 212.832031 160.210938 208.855469 163.789062 204.167969 164.433594 C 203.320312 164.550781 202.429688 164.445312 201.542969 164.445312 Z M 201.542969 164.445312 " fill-opacity="1" fill-rule="nonzero"/><path fill="#fcf9f4" d="M 114.984375 139.421875 C 114.6875 141.972656 113.296875 143.53125 110.609375 143.492188 C 107.867188 143.453125 106.449219 141.753906 106.476562 139.164062 C 106.5 136.527344 108.125 134.96875 110.773438 135.003906 C 113.453125 135.042969 114.738281 136.769531 114.984375 139.421875 Z M 114.984375 139.421875 " fill-opacity="1" fill-rule="nonzero"/><path fill="#fdfbf6" d="M 193.496094 129.828125 C 193.535156 132.804688 192.195312 134.402344 189.777344 134.527344 C 187.34375 134.65625 185.785156 133.203125 185.707031 130.640625 C 185.632812 128.117188 186.957031 126.53125 189.441406 126.378906 C 191.976562 126.222656 193.277344 127.753906 193.496094 129.828125 Z M 193.496094 129.828125 " fill-opacity="1" fill-rule="nonzero"/></svg>